<svg xmlns="http://www.w3.org/2000/svg" width="800" height="400" style="background-color: rgb(30, 30, 30);"><g transform="translate(0,370)" fill="none" font-size="10" font-family="sans-serif" text-anchor="middle"><path class="domain" stroke="#ffffff" d="M50.5,0.5H780.5"></path><g class="tick" opacity="1" transform="translate(53.518843120070166,0)"><line stroke="currentColor" y2="6"></line><text fill="currentColor" y="9" dy="0.71em" style="fill: #ffffff;"></text></g><g class="tick" opacity="1" transform="translate(59.916739702015825,0)"><line stroke="currentColor" y2="6"></line><text fill="currentColor" y="9" dy="0.71em" style="fill: #ffffff;"></text></g><g class="tick" opacity="1" transform="translate(66.31463628396148,0)"><line stroke="currentColor" y2="6"></line><text fill="currentColor" y="9" dy="0.71em" style="fill: #ffffff;"></text></g><g class="tick" opacity="1" transform="translate(72.71253286590715,0)"><line stroke="currentColor" y2="6"></line><text fill="currentColor" y="9" dy="0.71em" style="fill: #ffffff;"></text></g><g class="tick" opacity="1" transform="translate(79.1104294478528,0)"><line stroke="currentColor" y2="6"></line><text fill="currentColor" y="9" dy="0.71em" style="fill: #ffffff;"></text></g><g class="tick" opacity="1" transform="translate(85.50832602979847,0)"><line stroke="currentColor" y2="6"></line><text fill="currentColor" y="9" dy="0.71em" style="fill: #ffffff;"></text></g><g class="tick" opacity="1" transform="translate(91.90622261174413,0)"><line stroke="currentColor" y2="6"></line><text fill="currentColor" y="9" dy="0.71em" style="fill: #ffffff;"></text></g><g class="tick" opacity="1" transform="translate(98.30411919368979,0)"><line stroke="currentColor" y2="6"></line><text fill="currentColor" y="9" dy="0.71em" style="fill: #ffffff;"></text></g><g class="tick" opacity="1" transform="translate(104.70201577563545,0)"><line stroke="currentColor" y2="6"></line><text fill="currentColor" y="9" dy="0.71em" style="fill: #ffffff;"></text></g><g class="tick" opacity="1" transform="translate(111.0999123575811,0)"><line stroke="currentColor" y2="6"></line><text fill="currentColor" y="9" dy="0.71em" style="fill: #ffffff;"></text></g><g class="tick" opacity="1" transform="translate(117.49780893952676,0)"><line stroke="currentColor" y2="6"></line><text fill="currentColor" y="9" dy="0.71em" style="fill: #ffffff;"></text></g><g class="tick" opacity="1" transform="translate(123.89570552147242,0)"><line stroke="currentColor" y2="6"></line><text fill="currentColor" y="9" dy="0.71em" style="fill: #ffffff;"></text></g><g class="tick" opacity="1" transform="translate(130.2936021034181,0)"><line stroke="currentColor" y2="6"></line><text fill="currentColor" y="9" dy="0.71em" style="fill: #ffffff;"></text></g><g class="tick" opacity="1" transform="translate(136.69149868536377,0)"><line stroke="currentColor" y2="6"></line><text fill="currentColor" y="9" dy="0.71em" style="fill: #ffffff;"></text></g><g class="tick" opacity="1" transform="translate(143.0893952673094,0)"><line stroke="currentColor" y2="6"></line><text fill="currentColor" y="9" dy="0.71em" style="fill: #ffffff;"></text></g><g class="tick" opacity="1" transform="translate(149.48729184925506,0)"><line stroke="currentColor" y2="6"></line><text fill="currentColor" y="9" dy="0.71em" style="fill: #ffffff;"></text></g><g class="tick" opacity="1" transform="translate(155.88518843120073,0)"><line stroke="currentColor" y2="6"></line><text fill="currentColor" y="9" dy="0.71em" style="fill: #ffffff;"></text></g><g class="tick" opacity="1" transform="translate(162.2830850131464,0)"><line stroke="currentColor" y2="6"></line><text fill="currentColor" y="9" dy="0.71em" style="fill: #ffffff;"></text></g><g class="tick" opacity="1" transform="translate(168.68098159509205,0)"><line stroke="currentColor" y2="6"></line><text fill="currentColor" y="9" dy="0.71em" style="fill: #ffffff;"></text></g><g class="tick" opacity="1" transform="translate(175.0788781770377,0)"><line stroke="currentColor" y2="6"></line><text fill="currentColor" y="9" dy="0.71em" style="fill: #ffffff;"></text></g><g class="tick" opacity="1" transform="translate(181.47677475898337,0)"><line stroke="currentColor" y2="6"></line><text fill="currentColor" y="9" dy="0.71em" style="fill: #ffffff;"></text></g><g class="tick" opacity="1" transform="translate(187.87467134092904,0)"><line stroke="currentColor" y2="6"></line><text fill="currentColor" y="9" dy="0.71em" style="fill: #ffffff;"></text></g><g class="tick" opacity="1" transform="translate(194.27256792287469,0)"><line stroke="currentColor" y2="6"></line><text fill="currentColor" y="9" dy="0.71em" style="fill: #ffffff;"></text></g><g class="tick" opacity="1" transform="translate(200.67046450482036,0)"><line stroke="currentColor" y2="6"></line><text fill="currentColor" y="9" dy="0.71em" style="fill: #ffffff;"></text></g><g class="tick" opacity="1" transform="translate(207.06836108676603,0)"><line stroke="currentColor" y2="6"></line><text fill="currentColor" y="9" dy="0.71em" style="fill: #ffffff;"></text></g><g class="tick" opacity="1" transform="translate(213.46625766871168,0)"><line stroke="currentColor" y2="6"></line><text fill="currentColor" y="9" dy="0.71em" style="fill: #ffffff;"></text></g><g class="tick" opacity="1" transform="translate(219.86415425065735,0)"><line stroke="currentColor" y2="6"></line><text fill="currentColor" y="9" dy="0.71em" style="fill: #ffffff;"></text></g><g class="tick" opacity="1" transform="translate(226.262050832603,0)"><line stroke="currentColor" y2="6"></line><text fill="currentColor" y="9" dy="0.71em" style="fill: #ffffff;"></text></g><g class="tick" opacity="1" transform="translate(232.65994741454867,0)"><line stroke="currentColor" y2="6"></line><text fill="currentColor" y="9" dy="0.71em" style="fill: #ffffff;"></text></g><g class="tick" opacity="1" transform="translate(239.0578439964943,0)"><line stroke="currentColor" y2="6"></line><text fill="currentColor" y="9" dy="0.71em" style="fill: #ffffff;"></text></g><g class="tick" opacity="1" transform="translate(245.45574057844,0)"><line stroke="currentColor" y2="6"></line><text fill="currentColor" y="9" dy="0.71em" style="fill: #ffffff;"></text></g><g class="tick" opacity="1" transform="translate(251.85363716038563,0)"><line stroke="currentColor" y2="6"></line><text fill="currentColor" y="9" dy="0.71em" style="fill: #ffffff;"></text></g><g class="tick" opacity="1" transform="translate(258.25153374233133,0)"><line stroke="currentColor" y2="6"></line><text fill="currentColor" y="9" dy="0.71em" style="fill: #ffffff;"></text></g><g class="tick" opacity="1" transform="translate(264.64943032427703,0)"><line stroke="currentColor" y2="6"></line><text fill="currentColor" y="9" dy="0.71em" style="fill: #ffffff;"></text></g><g class="tick" opacity="1" transform="translate(271.0473269062226,0)"><line stroke="currentColor" y2="6"></line><text fill="currentColor" y="9" dy="0.71em" style="fill: #ffffff;"></text></g><g class="tick" opacity="1" transform="translate(277.4452234881683,0)"><line stroke="currentColor" y2="6"></line><text fill="currentColor" y="9" dy="0.71em" style="fill: #ffffff;"></text></g><g class="tick" opacity="1" transform="translate(283.84312007011397,0)"><line stroke="currentColor" y2="6"></line><text fill="currentColor" y="9" dy="0.71em" style="fill: #ffffff;"></text></g><g class="tick" opacity="1" transform="translate(290.2410166520596,0)"><line stroke="currentColor" y2="6"></line><text fill="currentColor" y="9" dy="0.71em" style="fill: #ffffff;"></text></g><g class="tick" opacity="1" transform="translate(296.6389132340053,0)"><line stroke="currentColor" y2="6"></line><text fill="currentColor" y="9" dy="0.71em" style="fill: #ffffff;"></text></g><g class="tick" opacity="1" transform="translate(303.03680981595096,0)"><line stroke="currentColor" y2="6"></line><text fill="currentColor" y="9" dy="0.71em" style="fill: #ffffff;"></text></g><g class="tick" opacity="1" transform="translate(309.4347063978966,0)"><line stroke="currentColor" y2="6"></line><text fill="currentColor" y="9" dy="0.71em" style="fill: #ffffff;"></text></g><g class="tick" opacity="1" transform="translate(315.8326029798423,0)"><line stroke="currentColor" y2="6"></line><text fill="currentColor" y="9" dy="0.71em" style="fill: #ffffff;"></text></g><g class="tick" opacity="1" transform="translate(322.23049956178795,0)"><line stroke="currentColor" y2="6"></line><text fill="currentColor" y="9" dy="0.71em" style="fill: #ffffff;"></text></g><g class="tick" opacity="1" transform="translate(328.6283961437336,0)"><line stroke="currentColor" y2="6"></line><text fill="currentColor" y="9" dy="0.71em" style="fill: #ffffff;"></text></g><g class="tick" opacity="1" transform="translate(335.02629272567924,0)"><line stroke="currentColor" y2="6"></line><text fill="currentColor" y="9" dy="0.71em" style="fill: #ffffff;"></text></g><g class="tick" opacity="1" transform="translate(341.42418930762494,0)"><line stroke="currentColor" y2="6"></line><text fill="currentColor" y="9" dy="0.71em" style="fill: #ffffff;"></text></g><g class="tick" opacity="1" transform="translate(347.8220858895706,0)"><line stroke="currentColor" y2="6"></line><text fill="currentColor" y="9" dy="0.71em" style="fill: #ffffff;"></text></g><g class="tick" opacity="1" transform="translate(354.21998247151623,0)"><line stroke="currentColor" y2="6"></line><text fill="currentColor" y="9" dy="0.71em" style="fill: #ffffff;"></text></g><g class="tick" opacity="1" transform="translate(360.61787905346193,0)"><line stroke="currentColor" y2="6"></line><text fill="currentColor" y="9" dy="0.71em" style="fill: #ffffff;"></text></g><g class="tick" opacity="1" transform="translate(367.0157756354076,0)"><line stroke="currentColor" y2="6"></line><text fill="currentColor" y="9" dy="0.71em" style="fill: #ffffff;"></text></g><g class="tick" opacity="1" transform="translate(373.4136722173532,0)"><line stroke="currentColor" y2="6"></line><text fill="currentColor" y="9" dy="0.71em" style="fill: #ffffff;"></text></g><g class="tick" opacity="1" transform="translate(379.81156879929887,0)"><line stroke="currentColor" y2="6"></line><text fill="currentColor" y="9" dy="0.71em" style="fill: #ffffff;"></text></g><g class="tick" opacity="1" transform="translate(386.20946538124457,0)"><line stroke="currentColor" y2="6"></line><text fill="currentColor" y="9" dy="0.71em" style="fill: #ffffff;"></text></g><g class="tick" opacity="1" transform="translate(392.6073619631902,0)"><line stroke="currentColor" y2="6"></line><text fill="currentColor" y="9" dy="0.71em" style="fill: #ffffff;"></text></g><g class="tick" opacity="1" transform="translate(399.00525854513586,0)"><line stroke="currentColor" y2="6"></line><text fill="currentColor" y="9" dy="0.71em" style="fill: #ffffff;"></text></g><g class="tick" opacity="1" transform="translate(405.4031551270815,0)"><line stroke="currentColor" y2="6"></line><text fill="currentColor" y="9" dy="0.71em" style="fill: #ffffff;"></text></g><g class="tick" opacity="1" transform="translate(411.8010517090272,0)"><line stroke="currentColor" y2="6"></line><text fill="currentColor" y="9" dy="0.71em" style="fill: #ffffff;"></text></g><g class="tick" opacity="1" transform="translate(418.19894829097285,0)"><line stroke="currentColor" y2="6"></line><text fill="currentColor" y="9" dy="0.71em" style="fill: #ffffff;"></text></g><g class="tick" opacity="1" transform="translate(424.5968448729185,0)"><line stroke="currentColor" y2="6"></line><text fill="currentColor" y="9" dy="0.71em" style="fill: #ffffff;"></text></g><g class="tick" opacity="1" transform="translate(430.9947414548642,0)"><line stroke="currentColor" y2="6"></line><text fill="currentColor" y="9" dy="0.71em" style="fill: #ffffff;"></text></g><g class="tick" opacity="1" transform="translate(437.39263803680984,0)"><line stroke="currentColor" y2="6"></line><text fill="currentColor" y="9" dy="0.71em" style="fill: #ffffff;"></text></g><g class="tick" opacity="1" transform="translate(443.7905346187555,0)"><line stroke="currentColor" y2="6"></line><text fill="currentColor" y="9" dy="0.71em" style="fill: #ffffff;"></text></g><g class="tick" opacity="1" transform="translate(450.18843120070113,0)"><line stroke="currentColor" y2="6"></line><text fill="currentColor" y="9" dy="0.71em" style="fill: #ffffff;"></text></g><g class="tick" opacity="1" transform="translate(456.58632778264683,0)"><line stroke="currentColor" y2="6"></line><text fill="currentColor" y="9" dy="0.71em" style="fill: #ffffff;"></text></g><g class="tick" opacity="1" transform="translate(462.9842243645925,0)"><line stroke="currentColor" y2="6"></line><text fill="currentColor" y="9" dy="0.71em" style="fill: #ffffff;"></text></g><g class="tick" opacity="1" transform="translate(469.3821209465381,0)"><line stroke="currentColor" y2="6"></line><text fill="currentColor" y="9" dy="0.71em" style="fill: #ffffff;"></text></g><g class="tick" opacity="1" transform="translate(475.7800175284838,0)"><line stroke="currentColor" y2="6"></line><text fill="currentColor" y="9" dy="0.71em" style="fill: #ffffff;"></text></g><g class="tick" opacity="1" transform="translate(482.17791411042947,0)"><line stroke="currentColor" y2="6"></line><text fill="currentColor" y="9" dy="0.71em" style="fill: #ffffff;"></text></g><g class="tick" opacity="1" transform="translate(488.5758106923751,0)"><line stroke="currentColor" y2="6"></line><text fill="currentColor" y="9" dy="0.71em" style="fill: #ffffff;"></text></g><g class="tick" opacity="1" transform="translate(494.97370727432076,0)"><line stroke="currentColor" y2="6"></line><text fill="currentColor" y="9" dy="0.71em" style="fill: #ffffff;"></text></g><g class="tick" opacity="1" transform="translate(501.37160385626646,0)"><line stroke="currentColor" y2="6"></line><text fill="currentColor" y="9" dy="0.71em" style="fill: #ffffff;"></text></g><g class="tick" opacity="1" transform="translate(507.7695004382121,0)"><line stroke="currentColor" y2="6"></line><text fill="currentColor" y="9" dy="0.71em" style="fill: #ffffff;"></text></g><g class="tick" opacity="1" transform="translate(514.1673970201578,0)"><line stroke="currentColor" y2="6"></line><text fill="currentColor" y="9" dy="0.71em" style="fill: #ffffff;"></text></g><g class="tick" opacity="1" transform="translate(520.5652936021035,0)"><line stroke="currentColor" y2="6"></line><text fill="currentColor" y="9" dy="0.71em" style="fill: #ffffff;"></text></g><g class="tick" opacity="1" transform="translate(526.963190184049,0)"><line stroke="currentColor" y2="6"></line><text fill="currentColor" y="9" dy="0.71em" style="fill: #ffffff;"></text></g><g class="tick" opacity="1" transform="translate(533.3610867659946,0)"><line stroke="currentColor" y2="6"></line><text fill="currentColor" y="9" dy="0.71em" style="fill: #ffffff;"></text></g><g class="tick" opacity="1" transform="translate(539.7589833479403,0)"><line stroke="currentColor" y2="6"></line><text fill="currentColor" y="9" dy="0.71em" style="fill: #ffffff;"></text></g><g class="tick" opacity="1" transform="translate(546.156879929886,0)"><line stroke="currentColor" y2="6"></line><text fill="currentColor" y="9" dy="0.71em" style="fill: #ffffff;"></text></g><g class="tick" opacity="1" transform="translate(552.5547765118316,0)"><line stroke="currentColor" y2="6"></line><text fill="currentColor" y="9" dy="0.71em" style="fill: #ffffff;"></text></g><g class="tick" opacity="1" transform="translate(558.9526730937773,0)"><line stroke="currentColor" y2="6"></line><text fill="currentColor" y="9" dy="0.71em" style="fill: #ffffff;"></text></g><g class="tick" opacity="1" transform="translate(565.350569675723,0)"><line stroke="currentColor" y2="6"></line><text fill="currentColor" y="9" dy="0.71em" style="fill: #ffffff;"></text></g><g class="tick" opacity="1" transform="translate(571.7484662576686,0)"><line stroke="currentColor" y2="6"></line><text fill="currentColor" y="9" dy="0.71em" style="fill: #ffffff;"></text></g><g class="tick" opacity="1" transform="translate(578.1463628396144,0)"><line stroke="currentColor" y2="6"></line><text fill="currentColor" y="9" dy="0.71em" style="fill: #ffffff;"></text></g><g class="tick" opacity="1" transform="translate(584.54425942156,0)"><line stroke="currentColor" y2="6"></line><text fill="currentColor" y="9" dy="0.71em" style="fill: #ffffff;"></text></g><g class="tick" opacity="1" transform="translate(590.9421560035056,0)"><line stroke="currentColor" y2="6"></line><text fill="currentColor" y="9" dy="0.71em" style="fill: #ffffff;"></text></g><g class="tick" opacity="1" transform="translate(597.3400525854512,0)"><line stroke="currentColor" y2="6"></line><text fill="currentColor" y="9" dy="0.71em" style="fill: #ffffff;"></text></g><g class="tick" opacity="1" transform="translate(603.737949167397,0)"><line stroke="currentColor" y2="6"></line><text fill="currentColor" y="9" dy="0.71em" style="fill: #ffffff;"></text></g><g class="tick" opacity="1" transform="translate(610.1358457493426,0)"><line stroke="currentColor" y2="6"></line><text fill="currentColor" y="9" dy="0.71em" style="fill: #ffffff;"></text></g><g class="tick" opacity="1" transform="translate(616.5337423312882,0)"><line stroke="currentColor" y2="6"></line><text fill="currentColor" y="9" dy="0.71em" style="fill: #ffffff;"></text></g><g class="tick" opacity="1" transform="translate(622.931638913234,0)"><line stroke="currentColor" y2="6"></line><text fill="currentColor" y="9" dy="0.71em" style="fill: #ffffff;"></text></g><g class="tick" opacity="1" transform="translate(629.3295354951796,0)"><line stroke="currentColor" y2="6"></line><text fill="currentColor" y="9" dy="0.71em" style="fill: #ffffff;"></text></g><g class="tick" opacity="1" transform="translate(635.7274320771252,0)"><line stroke="currentColor" y2="6"></line><text fill="currentColor" y="9" dy="0.71em" style="fill: #ffffff;"></text></g><g class="tick" opacity="1" transform="translate(642.125328659071,0)"><line stroke="currentColor" y2="6"></line><text fill="currentColor" y="9" dy="0.71em" style="fill: #ffffff;"></text></g><g class="tick" opacity="1" transform="translate(648.5232252410166,0)"><line stroke="currentColor" y2="6"></line><text fill="currentColor" y="9" dy="0.71em" style="fill: #ffffff;"></text></g><g class="tick" opacity="1" transform="translate(654.9211218229622,0)"><line stroke="currentColor" y2="6"></line><text fill="currentColor" y="9" dy="0.71em" style="fill: #ffffff;"></text></g><g class="tick" opacity="1" transform="translate(661.319018404908,0)"><line stroke="currentColor" y2="6"></line><text fill="currentColor" y="9" dy="0.71em" style="fill: #ffffff;"></text></g><g class="tick" opacity="1" transform="translate(667.7169149868536,0)"><line stroke="currentColor" y2="6"></line><text fill="currentColor" y="9" dy="0.71em" style="fill: #ffffff;"></text></g><g class="tick" opacity="1" transform="translate(674.1148115687992,0)"><line stroke="currentColor" y2="6"></line><text fill="currentColor" y="9" dy="0.71em" style="fill: #ffffff;"></text></g><g class="tick" opacity="1" transform="translate(680.512708150745,0)"><line stroke="currentColor" y2="6"></line><text fill="currentColor" y="9" dy="0.71em" style="fill: #ffffff;"></text></g><g class="tick" opacity="1" transform="translate(686.9106047326906,0)"><line stroke="currentColor" y2="6"></line><text fill="currentColor" y="9" dy="0.71em" style="fill: #ffffff;"></text></g><g class="tick" opacity="1" transform="translate(693.3085013146361,0)"><line stroke="currentColor" y2="6"></line><text fill="currentColor" y="9" dy="0.71em" style="fill: #ffffff;"></text></g><g class="tick" opacity="1" transform="translate(699.706397896582,0)"><line stroke="currentColor" y2="6"></line><text fill="currentColor" y="9" dy="0.71em" style="fill: #ffffff;"></text></g><g class="tick" opacity="1" transform="translate(706.1042944785275,0)"><line stroke="currentColor" y2="6"></line><text fill="currentColor" y="9" dy="0.71em" style="fill: #ffffff;"></text></g><g class="tick" opacity="1" transform="translate(712.5021910604731,0)"><line stroke="currentColor" y2="6"></line><text fill="currentColor" y="9" dy="0.71em" style="fill: #ffffff;"></text></g><g class="tick" opacity="1" transform="translate(718.900087642419,0)"><line stroke="currentColor" y2="6"></line><text fill="currentColor" y="9" dy="0.71em" style="fill: #ffffff;"></text></g><g class="tick" opacity="1" transform="translate(725.2979842243645,0)"><line stroke="currentColor" y2="6"></line><text fill="currentColor" y="9" dy="0.71em" style="fill: #ffffff;"></text></g><g class="tick" opacity="1" transform="translate(731.6958808063101,0)"><line stroke="currentColor" y2="6"></line><text fill="currentColor" y="9" dy="0.71em" style="fill: #ffffff;"></text></g><g class="tick" opacity="1" transform="translate(738.093777388256,0)"><line stroke="currentColor" y2="6"></line><text fill="currentColor" y="9" dy="0.71em" style="fill: #ffffff;"></text></g><g class="tick" opacity="1" transform="translate(744.4916739702015,0)"><line stroke="currentColor" y2="6"></line><text fill="currentColor" y="9" dy="0.71em" style="fill: #ffffff;"></text></g><g class="tick" opacity="1" transform="translate(750.8895705521471,0)"><line stroke="currentColor" y2="6"></line><text fill="currentColor" y="9" dy="0.71em" style="fill: #ffffff;"></text></g><g class="tick" opacity="1" transform="translate(757.2874671340927,0)"><line stroke="currentColor" y2="6"></line><text fill="currentColor" y="9" dy="0.71em" style="fill: #ffffff;"></text></g><g class="tick" opacity="1" transform="translate(763.6853637160385,0)"><line stroke="currentColor" y2="6"></line><text fill="currentColor" y="9" dy="0.71em" style="fill: #ffffff;"></text></g><g class="tick" opacity="1" transform="translate(770.0832602979841,0)"><line stroke="currentColor" y2="6"></line><text fill="currentColor" y="9" dy="0.71em" style="fill: #ffffff;"></text></g><g class="tick" opacity="1" transform="translate(776.4811568799297,0)"><line stroke="currentColor" y2="6"></line><text fill="currentColor" y="9" dy="0.71em" style="fill: #ffffff;"></text></g></g><g transform="translate(50,0)" fill="none" font-size="10" font-family="sans-serif" text-anchor="end"><path class="domain" stroke="#ffffff" d="M-6,370.5H0.5V20.5H-6"></path><g class="tick" opacity="1" transform="translate(0,370.5)"><line stroke="currentColor" x2="-6"></line><text fill="currentColor" x="-9" dy="0.32em" style="fill: #ffffff;">0</text></g><g class="tick" opacity="1" transform="translate(0,316.6538461538462)"><line stroke="currentColor" x2="-6"></line><text fill="currentColor" x="-9" dy="0.32em" style="fill: #ffffff;">100</text></g><g class="tick" opacity="1" transform="translate(0,262.80769230769226)"><line stroke="currentColor" x2="-6"></line><text fill="currentColor" x="-9" dy="0.32em" style="fill: #ffffff;">200</text></g><g class="tick" opacity="1" transform="translate(0,208.96153846153845)"><line stroke="currentColor" x2="-6"></line><text fill="currentColor" x="-9" dy="0.32em" style="fill: #ffffff;">300</text></g><g class="tick" opacity="1" transform="translate(0,155.1153846153846)"><line stroke="currentColor" x2="-6"></line><text fill="currentColor" x="-9" dy="0.32em" style="fill: #ffffff;">400</text></g><g class="tick" opacity="1" transform="translate(0,101.26923076923076)"><line stroke="currentColor" x2="-6"></line><text fill="currentColor" x="-9" dy="0.32em" style="fill: #ffffff;">500</text></g><g class="tick" opacity="1" transform="translate(0,47.423076923076906)"><line stroke="currentColor" x2="-6"></line><text fill="currentColor" x="-9" dy="0.32em" style="fill: #ffffff;">600</text></g></g><path fill="none" stroke="#ffffff" stroke-width="2" d="M53.518843120070166,319.19615384615383L59.916739702015825,319.19615384615383L66.31463628396148,319.19615384615383L72.71253286590715,319.19615384615383L79.1104294478528,319.19615384615383L85.50832602979847,319.19615384615383L91.90622261174413,319.19615384615383L98.30411919368979,319.19615384615383L104.70201577563545,31.307692307692292L111.0999123575811,31.307692307692292L117.49780893952676,31.307692307692292L123.89570552147242,31.307692307692292L130.2936021034181,31.307692307692292L136.69149868536377,31.307692307692292L143.0893952673094,31.307692307692292L149.48729184925506,31.307692307692292L155.88518843120073,31.307692307692292L162.2830850131464,31.307692307692292L168.68098159509205,31.307692307692292L175.0788781770377,31.307692307692292L181.47677475898337,31.307692307692292L187.87467134092904,31.307692307692292L194.27256792287469,31.307692307692292L200.67046450482036,319.19615384615383L207.06836108676603,319.19615384615383L213.46625766871168,319.19615384615383L219.86415425065735,319.19615384615383L226.262050832603,319.19615384615383L232.65994741454867,31.307692307692292L239.0578439964943,31.307692307692292L245.45574057844,31.307692307692292L251.85363716038563,31.307692307692292L258.25153374233133,31.307692307692292L264.64943032427703,31.307692307692292L271.0473269062226,31.307692307692292L277.4452234881683,31.307692307692292L283.84312007011397,31.307692307692292L290.2410166520596,31.307692307692292L296.6389132340053,31.307692307692292L303.03680981595096,31.307692307692292L309.4347063978966,31.307692307692292L315.8326029798423,31.307692307692292L322.23049956178795,31.307692307692292L328.6283961437336,31.307692307692292L335.02629272567924,31.307692307692292L341.42418930762494,31.307692307692292L347.8220858895706,31.307692307692292L354.21998247151623,31.307692307692292L360.61787905346193,31.307692307692292L367.0157756354076,31.307692307692292L373.4136722173532,336.13076923076926L379.81156879929887,336.13076923076926L386.20946538124457,336.13076923076926L392.6073619631902,336.13076923076926L399.00525854513586,336.13076923076926L405.4031551270815,336.13076923076926L411.8010517090272,336.13076923076926L418.19894829097285,336.13076923076926L424.5968448729185,336.13076923076926L430.9947414548642,336.13076923076926L437.39263803680984,336.13076923076926L443.7905346187555,336.13076923076926L450.18843120070113,336.13076923076926L456.58632778264683,336.13076923076926L462.9842243645925,336.13076923076926L469.3821209465381,31.307692307692292L475.7800175284838,31.307692307692292L482.17791411042947,31.307692307692292L488.5758106923751,31.307692307692292L494.97370727432076,31.307692307692292L501.37160385626646,31.307692307692292L507.7695004382121,31.307692307692292L514.1673970201578,31.307692307692292L520.5652936021035,31.307692307692292L526.963190184049,31.307692307692292L533.3610867659946,31.307692307692292L539.7589833479403,31.307692307692292L546.156879929886,31.307692307692292L552.5547765118316,31.307692307692292L558.9526730937773,31.307692307692292L565.350569675723,31.307692307692292L571.7484662576686,31.307692307692292L578.1463628396144,31.307692307692292L584.54425942156,31.307692307692292L590.9421560035056,31.307692307692292L597.3400525854512,31.307692307692292L603.737949167397,31.307692307692292L610.1358457493426,31.307692307692292L616.5337423312882,31.307692307692292L622.931638913234,31.307692307692292L629.3295354951796,31.307692307692292L635.7274320771252,285.3269230769231L642.125328659071,285.3269230769231L648.5232252410166,285.3269230769231L654.9211218229622,285.3269230769231L661.319018404908,285.3269230769231L667.7169149868536,285.3269230769231L674.1148115687992,285.3269230769231L680.512708150745,285.3269230769231L686.9106047326906,285.3269230769231L693.3085013146361,285.3269230769231L699.706397896582,285.3269230769231L706.1042944785275,285.3269230769231L712.5021910604731,285.3269230769231L718.900087642419,285.3269230769231L725.2979842243645,285.3269230769231L731.6958808063101,31.307692307692292L738.093777388256,31.307692307692292L744.4916739702015,31.307692307692292L750.8895705521471,31.307692307692292L757.2874671340927,31.307692307692292L763.6853637160385,31.307692307692292L770.0832602979841,31.307692307692292L776.4811568799297,31.307692307692292"></path></svg>