<svg xmlns="http://www.w3.org/2000/svg" width="800" height="400" style="background-color: rgb(30, 30, 30);"><g transform="translate(0,370)" fill="none" font-size="10" font-family="sans-serif" text-anchor="middle"><path class="domain" stroke="#ffffff" d="M50.5,0.5H780.5"></path><g class="tick" opacity="1" transform="translate(58.70932754880695,0)"><line stroke="currentColor" y2="6"></line><text fill="currentColor" y="9" dy="0.71em" style="fill: #ffffff;"></text></g><g class="tick" opacity="1" transform="translate(74.54446854663776,0)"><line stroke="currentColor" y2="6"></line><text fill="currentColor" y="9" dy="0.71em" style="fill: #ffffff;"></text></g><g class="tick" opacity="1" transform="translate(90.37960954446856,0)"><line stroke="currentColor" y2="6"></line><text fill="currentColor" y="9" dy="0.71em" style="fill: #ffffff;"></text></g><g class="tick" opacity="1" transform="translate(106.21475054229936,0)"><line stroke="currentColor" y2="6"></line><text fill="currentColor" y="9" dy="0.71em" style="fill: #ffffff;"></text></g><g class="tick" opacity="1" transform="translate(122.04989154013016,0)"><line stroke="currentColor" y2="6"></line><text fill="currentColor" y="9" dy="0.71em" style="fill: #ffffff;"></text></g><g class="tick" opacity="1" transform="translate(137.88503253796097,0)"><line stroke="currentColor" y2="6"></line><text fill="currentColor" y="9" dy="0.71em" style="fill: #ffffff;"></text></g><g class="tick" opacity="1" transform="translate(153.72017353579176,0)"><line stroke="currentColor" y2="6"></line><text fill="currentColor" y="9" dy="0.71em" style="fill: #ffffff;"></text></g><g class="tick" opacity="1" transform="translate(169.55531453362258,0)"><line stroke="currentColor" y2="6"></line><text fill="currentColor" y="9" dy="0.71em" style="fill: #ffffff;"></text></g><g class="tick" opacity="1" transform="translate(185.39045553145337,0)"><line stroke="currentColor" y2="6"></line><text fill="currentColor" y="9" dy="0.71em" style="fill: #ffffff;"></text></g><g class="tick" opacity="1" transform="translate(201.22559652928416,0)"><line stroke="currentColor" y2="6"></line><text fill="currentColor" y="9" dy="0.71em" style="fill: #ffffff;"></text></g><g class="tick" opacity="1" transform="translate(217.06073752711498,0)"><line stroke="currentColor" y2="6"></line><text fill="currentColor" y="9" dy="0.71em" style="fill: #ffffff;"></text></g><g class="tick" opacity="1" transform="translate(232.89587852494577,0)"><line stroke="currentColor" y2="6"></line><text fill="currentColor" y="9" dy="0.71em" style="fill: #ffffff;"></text></g><g class="tick" opacity="1" transform="translate(248.73101952277656,0)"><line stroke="currentColor" y2="6"></line><text fill="currentColor" y="9" dy="0.71em" style="fill: #ffffff;"></text></g><g class="tick" opacity="1" transform="translate(264.56616052060735,0)"><line stroke="currentColor" y2="6"></line><text fill="currentColor" y="9" dy="0.71em" style="fill: #ffffff;"></text></g><g class="tick" opacity="1" transform="translate(280.4013015184382,0)"><line stroke="currentColor" y2="6"></line><text fill="currentColor" y="9" dy="0.71em" style="fill: #ffffff;"></text></g><g class="tick" opacity="1" transform="translate(296.23644251626894,0)"><line stroke="currentColor" y2="6"></line><text fill="currentColor" y="9" dy="0.71em" style="fill: #ffffff;"></text></g><g class="tick" opacity="1" transform="translate(312.07158351409976,0)"><line stroke="currentColor" y2="6"></line><text fill="currentColor" y="9" dy="0.71em" style="fill: #ffffff;"></text></g><g class="tick" opacity="1" transform="translate(327.9067245119306,0)"><line stroke="currentColor" y2="6"></line><text fill="currentColor" y="9" dy="0.71em" style="fill: #ffffff;"></text></g><g class="tick" opacity="1" transform="translate(343.74186550976134,0)"><line stroke="currentColor" y2="6"></line><text fill="currentColor" y="9" dy="0.71em" style="fill: #ffffff;"></text></g><g class="tick" opacity="1" transform="translate(359.57700650759216,0)"><line stroke="currentColor" y2="6"></line><text fill="currentColor" y="9" dy="0.71em" style="fill: #ffffff;"></text></g><g class="tick" opacity="1" transform="translate(375.412147505423,0)"><line stroke="currentColor" y2="6"></line><text fill="currentColor" y="9" dy="0.71em" style="fill: #ffffff;"></text></g><g class="tick" opacity="1" transform="translate(391.24728850325374,0)"><line stroke="currentColor" y2="6"></line><text fill="currentColor" y="9" dy="0.71em" style="fill: #ffffff;"></text></g><g class="tick" opacity="1" transform="translate(407.08242950108456,0)"><line stroke="currentColor" y2="6"></line><text fill="currentColor" y="9" dy="0.71em" style="fill: #ffffff;"></text></g><g class="tick" opacity="1" transform="translate(422.9175704989154,0)"><line stroke="currentColor" y2="6"></line><text fill="currentColor" y="9" dy="0.71em" style="fill: #ffffff;"></text></g><g class="tick" opacity="1" transform="translate(438.75271149674614,0)"><line stroke="currentColor" y2="6"></line><text fill="currentColor" y="9" dy="0.71em" style="fill: #ffffff;"></text></g><g class="tick" opacity="1" transform="translate(454.58785249457696,0)"><line stroke="currentColor" y2="6"></line><text fill="currentColor" y="9" dy="0.71em" style="fill: #ffffff;"></text></g><g class="tick" opacity="1" transform="translate(470.4229934924078,0)"><line stroke="currentColor" y2="6"></line><text fill="currentColor" y="9" dy="0.71em" style="fill: #ffffff;"></text></g><g class="tick" opacity="1" transform="translate(486.2581344902386,0)"><line stroke="currentColor" y2="6"></line><text fill="currentColor" y="9" dy="0.71em" style="fill: #ffffff;"></text></g><g class="tick" opacity="1" transform="translate(502.09327548806937,0)"><line stroke="currentColor" y2="6"></line><text fill="currentColor" y="9" dy="0.71em" style="fill: #ffffff;"></text></g><g class="tick" opacity="1" transform="translate(517.9284164859002,0)"><line stroke="currentColor" y2="6"></line><text fill="currentColor" y="9" dy="0.71em" style="fill: #ffffff;"></text></g><g class="tick" opacity="1" transform="translate(533.763557483731,0)"><line stroke="currentColor" y2="6"></line><text fill="currentColor" y="9" dy="0.71em" style="fill: #ffffff;"></text></g><g class="tick" opacity="1" transform="translate(549.5986984815619,0)"><line stroke="currentColor" y2="6"></line><text fill="currentColor" y="9" dy="0.71em" style="fill: #ffffff;"></text></g><g class="tick" opacity="1" transform="translate(565.4338394793926,0)"><line stroke="currentColor" y2="6"></line><text fill="currentColor" y="9" dy="0.71em" style="fill: #ffffff;"></text></g><g class="tick" opacity="1" transform="translate(581.2689804772234,0)"><line stroke="currentColor" y2="6"></line><text fill="currentColor" y="9" dy="0.71em" style="fill: #ffffff;"></text></g><g class="tick" opacity="1" transform="translate(597.1041214750543,0)"><line stroke="currentColor" y2="6"></line><text fill="currentColor" y="9" dy="0.71em" style="fill: #ffffff;"></text></g><g class="tick" opacity="1" transform="translate(612.939262472885,0)"><line stroke="currentColor" y2="6"></line><text fill="currentColor" y="9" dy="0.71em" style="fill: #ffffff;"></text></g><g class="tick" opacity="1" transform="translate(628.7744034707158,0)"><line stroke="currentColor" y2="6"></line><text fill="currentColor" y="9" dy="0.71em" style="fill: #ffffff;"></text></g><g class="tick" opacity="1" transform="translate(644.6095444685467,0)"><line stroke="currentColor" y2="6"></line><text fill="currentColor" y="9" dy="0.71em" style="fill: #ffffff;"></text></g><g class="tick" opacity="1" transform="translate(660.4446854663775,0)"><line stroke="currentColor" y2="6"></line><text fill="currentColor" y="9" dy="0.71em" style="fill: #ffffff;"></text></g><g class="tick" opacity="1" transform="translate(676.2798264642082,0)"><line stroke="currentColor" y2="6"></line><text fill="currentColor" y="9" dy="0.71em" style="fill: #ffffff;"></text></g><g class="tick" opacity="1" transform="translate(692.1149674620391,0)"><line stroke="currentColor" y2="6"></line><text fill="currentColor" y="9" dy="0.71em" style="fill: #ffffff;"></text></g><g class="tick" opacity="1" transform="translate(707.9501084598699,0)"><line stroke="currentColor" y2="6"></line><text fill="currentColor" y="9" dy="0.71em" style="fill: #ffffff;"></text></g><g class="tick" opacity="1" transform="translate(723.7852494577006,0)"><line stroke="currentColor" y2="6"></line><text fill="currentColor" y="9" dy="0.71em" style="fill: #ffffff;"></text></g><g class="tick" opacity="1" transform="translate(739.6203904555315,0)"><line stroke="currentColor" y2="6"></line><text fill="currentColor" y="9" dy="0.71em" style="fill: #ffffff;"></text></g><g class="tick" opacity="1" transform="translate(755.4555314533623,0)"><line stroke="currentColor" y2="6"></line><text fill="currentColor" y="9" dy="0.71em" style="fill: #ffffff;"></text></g><g class="tick" opacity="1" transform="translate(771.290672451193,0)"><line stroke="currentColor" y2="6"></line><text fill="currentColor" y="9" dy="0.71em" style="fill: #ffffff;"></text></g></g><g transform="translate(50,0)" fill="none" font-size="10" font-family="sans-serif" text-anchor="end"><path class="domain" stroke="#ffffff" d="M-6,370.5H0.5V20.5H-6"></path><g class="tick" opacity="1" transform="translate(0,370.5)"><line stroke="currentColor" x2="-6"></line><text fill="currentColor" x="-9" dy="0.32em" style="fill: #ffffff;">0</text></g><g class="tick" opacity="1" transform="translate(0,300.5)"><line stroke="currentColor" x2="-6"></line><text fill="currentColor" x="-9" dy="0.32em" style="fill: #ffffff;">1</text></g><g class="tick" opacity="1" transform="translate(0,230.5)"><line stroke="currentColor" x2="-6"></line><text fill="currentColor" x="-9" dy="0.32em" style="fill: #ffffff;">2</text></g><g class="tick" opacity="1" transform="translate(0,160.5)"><line stroke="currentColor" x2="-6"></line><text fill="currentColor" x="-9" dy="0.32em" style="fill: #ffffff;">3</text></g><g class="tick" opacity="1" transform="translate(0,90.49999999999999)"><line stroke="currentColor" x2="-6"></line><text fill="currentColor" x="-9" dy="0.32em" style="fill: #ffffff;">4</text></g><g class="tick" opacity="1" transform="translate(0,20.5)"><line stroke="currentColor" x2="-6"></line><text fill="currentColor" x="-9" dy="0.32em" style="fill: #ffffff;">5</text></g></g><path fill="none" stroke="#ffffff" stroke-width="2" d="M58.70932754880695,49.39999999999999L74.54446854663776,49.39999999999999L90.37960954446856,49.39999999999999L106.21475054229936,49.39999999999999L122.04989154013016,49.39999999999999L137.88503253796097,49.39999999999999L153.72017353579176,50.800000000000026L169.55531453362258,60.599999999999994L185.39045553145337,69L201.22559652928416,67.59999999999997L217.06073752711498,70.39999999999996L232.89587852494577,70.39999999999996L248.73101952277656,70.39999999999996L264.56616052060735,70.39999999999996L280.4013015184382,70.39999999999996L296.23644251626894,70.39999999999996L312.07158351409976,70.39999999999996L327.9067245119306,70.39999999999996L343.74186550976134,70.39999999999996L359.57700650759216,70.39999999999996L375.412147505423,70.39999999999996L391.24728850325374,71.10000000000005L407.08242950108456,71.10000000000005L422.9175704989154,71.10000000000005L438.75271149674614,71.10000000000005L454.58785249457696,71.10000000000005L470.4229934924078,71.10000000000005L486.2581344902386,71.10000000000005L502.09327548806937,71.10000000000005L517.9284164859002,71.10000000000005L533.763557483731,71.10000000000005L549.5986984815619,71.10000000000005L565.4338394793926,71.10000000000005L581.2689804772234,71.10000000000005L597.1041214750543,71.10000000000005L612.939262472885,71.10000000000005L628.7744034707158,71.10000000000005L644.6095444685467,69.7L660.4446854663775,69.7L676.2798264642082,69.7L692.1149674620391,69.7L707.9501084598699,69.7L723.7852494577006,69.7L739.6203904555315,69.7L755.4555314533623,69.7L771.290672451193,69.7"></path></svg>