<svg xmlns="http://www.w3.org/2000/svg" width="800" height="400" style="background-color: rgb(30, 30, 30);"><g transform="translate(0,370)" fill="none" font-size="10" font-family="sans-serif" text-anchor="middle"><path class="domain" stroke="#ffffff" d="M50.5,0.5H780.5"></path><g class="tick" opacity="1" transform="translate(52.72943575798775,0)"><line stroke="currentColor" y2="6"></line><text fill="currentColor" y="9" dy="0.71em" style="fill: #ffffff;"></text></g><g class="tick" opacity="1" transform="translate(57.692046227056416,0)"><line stroke="currentColor" y2="6"></line><text fill="currentColor" y="9" dy="0.71em" style="fill: #ffffff;"></text></g><g class="tick" opacity="1" transform="translate(62.65465669612507,0)"><line stroke="currentColor" y2="6"></line><text fill="currentColor" y="9" dy="0.71em" style="fill: #ffffff;"></text></g><g class="tick" opacity="1" transform="translate(67.61726716519372,0)"><line stroke="currentColor" y2="6"></line><text fill="currentColor" y="9" dy="0.71em" style="fill: #ffffff;"></text></g><g class="tick" opacity="1" transform="translate(72.57987763426239,0)"><line stroke="currentColor" y2="6"></line><text fill="currentColor" y="9" dy="0.71em" style="fill: #ffffff;"></text></g><g class="tick" opacity="1" transform="translate(77.54248810333105,0)"><line stroke="currentColor" y2="6"></line><text fill="currentColor" y="9" dy="0.71em" style="fill: #ffffff;"></text></g><g class="tick" opacity="1" transform="translate(82.5050985723997,0)"><line stroke="currentColor" y2="6"></line><text fill="currentColor" y="9" dy="0.71em" style="fill: #ffffff;"></text></g><g class="tick" opacity="1" transform="translate(87.46770904146837,0)"><line stroke="currentColor" y2="6"></line><text fill="currentColor" y="9" dy="0.71em" style="fill: #ffffff;"></text></g><g class="tick" opacity="1" transform="translate(92.43031951053703,0)"><line stroke="currentColor" y2="6"></line><text fill="currentColor" y="9" dy="0.71em" style="fill: #ffffff;"></text></g><g class="tick" opacity="1" transform="translate(97.3929299796057,0)"><line stroke="currentColor" y2="6"></line><text fill="currentColor" y="9" dy="0.71em" style="fill: #ffffff;"></text></g><g class="tick" opacity="1" transform="translate(102.35554044867436,0)"><line stroke="currentColor" y2="6"></line><text fill="currentColor" y="9" dy="0.71em" style="fill: #ffffff;"></text></g><g class="tick" opacity="1" transform="translate(107.31815091774301,0)"><line stroke="currentColor" y2="6"></line><text fill="currentColor" y="9" dy="0.71em" style="fill: #ffffff;"></text></g><g class="tick" opacity="1" transform="translate(112.28076138681168,0)"><line stroke="currentColor" y2="6"></line><text fill="currentColor" y="9" dy="0.71em" style="fill: #ffffff;"></text></g><g class="tick" opacity="1" transform="translate(117.24337185588034,0)"><line stroke="currentColor" y2="6"></line><text fill="currentColor" y="9" dy="0.71em" style="fill: #ffffff;"></text></g><g class="tick" opacity="1" transform="translate(122.20598232494899,0)"><line stroke="currentColor" y2="6"></line><text fill="currentColor" y="9" dy="0.71em" style="fill: #ffffff;"></text></g><g class="tick" opacity="1" transform="translate(127.16859279401766,0)"><line stroke="currentColor" y2="6"></line><text fill="currentColor" y="9" dy="0.71em" style="fill: #ffffff;"></text></g><g class="tick" opacity="1" transform="translate(132.13120326308632,0)"><line stroke="currentColor" y2="6"></line><text fill="currentColor" y="9" dy="0.71em" style="fill: #ffffff;"></text></g><g class="tick" opacity="1" transform="translate(137.09381373215498,0)"><line stroke="currentColor" y2="6"></line><text fill="currentColor" y="9" dy="0.71em" style="fill: #ffffff;"></text></g><g class="tick" opacity="1" transform="translate(142.05642420122365,0)"><line stroke="currentColor" y2="6"></line><text fill="currentColor" y="9" dy="0.71em" style="fill: #ffffff;"></text></g><g class="tick" opacity="1" transform="translate(147.01903467029229,0)"><line stroke="currentColor" y2="6"></line><text fill="currentColor" y="9" dy="0.71em" style="fill: #ffffff;"></text></g><g class="tick" opacity="1" transform="translate(151.98164513936098,0)"><line stroke="currentColor" y2="6"></line><text fill="currentColor" y="9" dy="0.71em" style="fill: #ffffff;"></text></g><g class="tick" opacity="1" transform="translate(156.94425560842961,0)"><line stroke="currentColor" y2="6"></line><text fill="currentColor" y="9" dy="0.71em" style="fill: #ffffff;"></text></g><g class="tick" opacity="1" transform="translate(161.90686607749828,0)"><line stroke="currentColor" y2="6"></line><text fill="currentColor" y="9" dy="0.71em" style="fill: #ffffff;"></text></g><g class="tick" opacity="1" transform="translate(166.86947654656694,0)"><line stroke="currentColor" y2="6"></line><text fill="currentColor" y="9" dy="0.71em" style="fill: #ffffff;"></text></g><g class="tick" opacity="1" transform="translate(171.8320870156356,0)"><line stroke="currentColor" y2="6"></line><text fill="currentColor" y="9" dy="0.71em" style="fill: #ffffff;"></text></g><g class="tick" opacity="1" transform="translate(176.79469748470427,0)"><line stroke="currentColor" y2="6"></line><text fill="currentColor" y="9" dy="0.71em" style="fill: #ffffff;"></text></g><g class="tick" opacity="1" transform="translate(181.75730795377294,0)"><line stroke="currentColor" y2="6"></line><text fill="currentColor" y="9" dy="0.71em" style="fill: #ffffff;"></text></g><g class="tick" opacity="1" transform="translate(186.7199184228416,0)"><line stroke="currentColor" y2="6"></line><text fill="currentColor" y="9" dy="0.71em" style="fill: #ffffff;"></text></g><g class="tick" opacity="1" transform="translate(191.68252889191024,0)"><line stroke="currentColor" y2="6"></line><text fill="currentColor" y="9" dy="0.71em" style="fill: #ffffff;"></text></g><g class="tick" opacity="1" transform="translate(196.6451393609789,0)"><line stroke="currentColor" y2="6"></line><text fill="currentColor" y="9" dy="0.71em" style="fill: #ffffff;"></text></g><g class="tick" opacity="1" transform="translate(201.60774983004757,0)"><line stroke="currentColor" y2="6"></line><text fill="currentColor" y="9" dy="0.71em" style="fill: #ffffff;"></text></g><g class="tick" opacity="1" transform="translate(206.57036029911623,0)"><line stroke="currentColor" y2="6"></line><text fill="currentColor" y="9" dy="0.71em" style="fill: #ffffff;"></text></g><g class="tick" opacity="1" transform="translate(211.5329707681849,0)"><line stroke="currentColor" y2="6"></line><text fill="currentColor" y="9" dy="0.71em" style="fill: #ffffff;"></text></g><g class="tick" opacity="1" transform="translate(216.49558123725356,0)"><line stroke="currentColor" y2="6"></line><text fill="currentColor" y="9" dy="0.71em" style="fill: #ffffff;"></text></g><g class="tick" opacity="1" transform="translate(221.45819170632222,0)"><line stroke="currentColor" y2="6"></line><text fill="currentColor" y="9" dy="0.71em" style="fill: #ffffff;"></text></g><g class="tick" opacity="1" transform="translate(226.4208021753909,0)"><line stroke="currentColor" y2="6"></line><text fill="currentColor" y="9" dy="0.71em" style="fill: #ffffff;"></text></g><g class="tick" opacity="1" transform="translate(231.38341264445955,0)"><line stroke="currentColor" y2="6"></line><text fill="currentColor" y="9" dy="0.71em" style="fill: #ffffff;"></text></g><g class="tick" opacity="1" transform="translate(236.3460231135282,0)"><line stroke="currentColor" y2="6"></line><text fill="currentColor" y="9" dy="0.71em" style="fill: #ffffff;"></text></g><g class="tick" opacity="1" transform="translate(241.30863358259685,0)"><line stroke="currentColor" y2="6"></line><text fill="currentColor" y="9" dy="0.71em" style="fill: #ffffff;"></text></g><g class="tick" opacity="1" transform="translate(246.27124405166552,0)"><line stroke="currentColor" y2="6"></line><text fill="currentColor" y="9" dy="0.71em" style="fill: #ffffff;"></text></g><g class="tick" opacity="1" transform="translate(251.23385452073418,0)"><line stroke="currentColor" y2="6"></line><text fill="currentColor" y="9" dy="0.71em" style="fill: #ffffff;"></text></g><g class="tick" opacity="1" transform="translate(256.19646498980285,0)"><line stroke="currentColor" y2="6"></line><text fill="currentColor" y="9" dy="0.71em" style="fill: #ffffff;"></text></g><g class="tick" opacity="1" transform="translate(261.1590754588715,0)"><line stroke="currentColor" y2="6"></line><text fill="currentColor" y="9" dy="0.71em" style="fill: #ffffff;"></text></g><g class="tick" opacity="1" transform="translate(266.1216859279402,0)"><line stroke="currentColor" y2="6"></line><text fill="currentColor" y="9" dy="0.71em" style="fill: #ffffff;"></text></g><g class="tick" opacity="1" transform="translate(271.0842963970088,0)"><line stroke="currentColor" y2="6"></line><text fill="currentColor" y="9" dy="0.71em" style="fill: #ffffff;"></text></g><g class="tick" opacity="1" transform="translate(276.0469068660775,0)"><line stroke="currentColor" y2="6"></line><text fill="currentColor" y="9" dy="0.71em" style="fill: #ffffff;"></text></g><g class="tick" opacity="1" transform="translate(281.00951733514614,0)"><line stroke="currentColor" y2="6"></line><text fill="currentColor" y="9" dy="0.71em" style="fill: #ffffff;"></text></g><g class="tick" opacity="1" transform="translate(285.9721278042148,0)"><line stroke="currentColor" y2="6"></line><text fill="currentColor" y="9" dy="0.71em" style="fill: #ffffff;"></text></g><g class="tick" opacity="1" transform="translate(290.9347382732835,0)"><line stroke="currentColor" y2="6"></line><text fill="currentColor" y="9" dy="0.71em" style="fill: #ffffff;"></text></g><g class="tick" opacity="1" transform="translate(295.89734874235216,0)"><line stroke="currentColor" y2="6"></line><text fill="currentColor" y="9" dy="0.71em" style="fill: #ffffff;"></text></g><g class="tick" opacity="1" transform="translate(300.8599592114208,0)"><line stroke="currentColor" y2="6"></line><text fill="currentColor" y="9" dy="0.71em" style="fill: #ffffff;"></text></g><g class="tick" opacity="1" transform="translate(305.82256968048944,0)"><line stroke="currentColor" y2="6"></line><text fill="currentColor" y="9" dy="0.71em" style="fill: #ffffff;"></text></g><g class="tick" opacity="1" transform="translate(310.78518014955813,0)"><line stroke="currentColor" y2="6"></line><text fill="currentColor" y="9" dy="0.71em" style="fill: #ffffff;"></text></g><g class="tick" opacity="1" transform="translate(315.74779061862677,0)"><line stroke="currentColor" y2="6"></line><text fill="currentColor" y="9" dy="0.71em" style="fill: #ffffff;"></text></g><g class="tick" opacity="1" transform="translate(320.71040108769546,0)"><line stroke="currentColor" y2="6"></line><text fill="currentColor" y="9" dy="0.71em" style="fill: #ffffff;"></text></g><g class="tick" opacity="1" transform="translate(325.6730115567641,0)"><line stroke="currentColor" y2="6"></line><text fill="currentColor" y="9" dy="0.71em" style="fill: #ffffff;"></text></g><g class="tick" opacity="1" transform="translate(330.63562202583273,0)"><line stroke="currentColor" y2="6"></line><text fill="currentColor" y="9" dy="0.71em" style="fill: #ffffff;"></text></g><g class="tick" opacity="1" transform="translate(335.5982324949014,0)"><line stroke="currentColor" y2="6"></line><text fill="currentColor" y="9" dy="0.71em" style="fill: #ffffff;"></text></g><g class="tick" opacity="1" transform="translate(340.56084296397006,0)"><line stroke="currentColor" y2="6"></line><text fill="currentColor" y="9" dy="0.71em" style="fill: #ffffff;"></text></g><g class="tick" opacity="1" transform="translate(345.52345343303875,0)"><line stroke="currentColor" y2="6"></line><text fill="currentColor" y="9" dy="0.71em" style="fill: #ffffff;"></text></g><g class="tick" opacity="1" transform="translate(350.4860639021074,0)"><line stroke="currentColor" y2="6"></line><text fill="currentColor" y="9" dy="0.71em" style="fill: #ffffff;"></text></g><g class="tick" opacity="1" transform="translate(355.4486743711761,0)"><line stroke="currentColor" y2="6"></line><text fill="currentColor" y="9" dy="0.71em" style="fill: #ffffff;"></text></g><g class="tick" opacity="1" transform="translate(360.4112848402447,0)"><line stroke="currentColor" y2="6"></line><text fill="currentColor" y="9" dy="0.71em" style="fill: #ffffff;"></text></g><g class="tick" opacity="1" transform="translate(365.3738953093134,0)"><line stroke="currentColor" y2="6"></line><text fill="currentColor" y="9" dy="0.71em" style="fill: #ffffff;"></text></g><g class="tick" opacity="1" transform="translate(370.33650577838205,0)"><line stroke="currentColor" y2="6"></line><text fill="currentColor" y="9" dy="0.71em" style="fill: #ffffff;"></text></g><g class="tick" opacity="1" transform="translate(375.2991162474507,0)"><line stroke="currentColor" y2="6"></line><text fill="currentColor" y="9" dy="0.71em" style="fill: #ffffff;"></text></g><g class="tick" opacity="1" transform="translate(380.2617267165194,0)"><line stroke="currentColor" y2="6"></line><text fill="currentColor" y="9" dy="0.71em" style="fill: #ffffff;"></text></g><g class="tick" opacity="1" transform="translate(385.224337185588,0)"><line stroke="currentColor" y2="6"></line><text fill="currentColor" y="9" dy="0.71em" style="fill: #ffffff;"></text></g><g class="tick" opacity="1" transform="translate(390.1869476546567,0)"><line stroke="currentColor" y2="6"></line><text fill="currentColor" y="9" dy="0.71em" style="fill: #ffffff;"></text></g><g class="tick" opacity="1" transform="translate(395.14955812372534,0)"><line stroke="currentColor" y2="6"></line><text fill="currentColor" y="9" dy="0.71em" style="fill: #ffffff;"></text></g><g class="tick" opacity="1" transform="translate(400.11216859279403,0)"><line stroke="currentColor" y2="6"></line><text fill="currentColor" y="9" dy="0.71em" style="fill: #ffffff;"></text></g><g class="tick" opacity="1" transform="translate(405.07477906186267,0)"><line stroke="currentColor" y2="6"></line><text fill="currentColor" y="9" dy="0.71em" style="fill: #ffffff;"></text></g><g class="tick" opacity="1" transform="translate(410.03738953093136,0)"><line stroke="currentColor" y2="6"></line><text fill="currentColor" y="9" dy="0.71em" style="fill: #ffffff;"></text></g><g class="tick" opacity="1" transform="translate(415,0)"><line stroke="currentColor" y2="6"></line><text fill="currentColor" y="9" dy="0.71em" style="fill: #ffffff;"></text></g><g class="tick" opacity="1" transform="translate(419.96261046906864,0)"><line stroke="currentColor" y2="6"></line><text fill="currentColor" y="9" dy="0.71em" style="fill: #ffffff;"></text></g><g class="tick" opacity="1" transform="translate(424.92522093813733,0)"><line stroke="currentColor" y2="6"></line><text fill="currentColor" y="9" dy="0.71em" style="fill: #ffffff;"></text></g><g class="tick" opacity="1" transform="translate(429.88783140720597,0)"><line stroke="currentColor" y2="6"></line><text fill="currentColor" y="9" dy="0.71em" style="fill: #ffffff;"></text></g><g class="tick" opacity="1" transform="translate(434.85044187627466,0)"><line stroke="currentColor" y2="6"></line><text fill="currentColor" y="9" dy="0.71em" style="fill: #ffffff;"></text></g><g class="tick" opacity="1" transform="translate(439.8130523453433,0)"><line stroke="currentColor" y2="6"></line><text fill="currentColor" y="9" dy="0.71em" style="fill: #ffffff;"></text></g><g class="tick" opacity="1" transform="translate(444.775662814412,0)"><line stroke="currentColor" y2="6"></line><text fill="currentColor" y="9" dy="0.71em" style="fill: #ffffff;"></text></g><g class="tick" opacity="1" transform="translate(449.7382732834806,0)"><line stroke="currentColor" y2="6"></line><text fill="currentColor" y="9" dy="0.71em" style="fill: #ffffff;"></text></g><g class="tick" opacity="1" transform="translate(454.70088375254926,0)"><line stroke="currentColor" y2="6"></line><text fill="currentColor" y="9" dy="0.71em" style="fill: #ffffff;"></text></g><g class="tick" opacity="1" transform="translate(459.66349422161795,0)"><line stroke="currentColor" y2="6"></line><text fill="currentColor" y="9" dy="0.71em" style="fill: #ffffff;"></text></g><g class="tick" opacity="1" transform="translate(464.6261046906866,0)"><line stroke="currentColor" y2="6"></line><text fill="currentColor" y="9" dy="0.71em" style="fill: #ffffff;"></text></g><g class="tick" opacity="1" transform="translate(469.5887151597553,0)"><line stroke="currentColor" y2="6"></line><text fill="currentColor" y="9" dy="0.71em" style="fill: #ffffff;"></text></g><g class="tick" opacity="1" transform="translate(474.5513256288239,0)"><line stroke="currentColor" y2="6"></line><text fill="currentColor" y="9" dy="0.71em" style="fill: #ffffff;"></text></g><g class="tick" opacity="1" transform="translate(479.5139360978926,0)"><line stroke="currentColor" y2="6"></line><text fill="currentColor" y="9" dy="0.71em" style="fill: #ffffff;"></text></g><g class="tick" opacity="1" transform="translate(484.47654656696125,0)"><line stroke="currentColor" y2="6"></line><text fill="currentColor" y="9" dy="0.71em" style="fill: #ffffff;"></text></g><g class="tick" opacity="1" transform="translate(489.4391570360299,0)"><line stroke="currentColor" y2="6"></line><text fill="currentColor" y="9" dy="0.71em" style="fill: #ffffff;"></text></g><g class="tick" opacity="1" transform="translate(494.4017675050986,0)"><line stroke="currentColor" y2="6"></line><text fill="currentColor" y="9" dy="0.71em" style="fill: #ffffff;"></text></g><g class="tick" opacity="1" transform="translate(499.3643779741672,0)"><line stroke="currentColor" y2="6"></line><text fill="currentColor" y="9" dy="0.71em" style="fill: #ffffff;"></text></g><g class="tick" opacity="1" transform="translate(504.3269884432359,0)"><line stroke="currentColor" y2="6"></line><text fill="currentColor" y="9" dy="0.71em" style="fill: #ffffff;"></text></g><g class="tick" opacity="1" transform="translate(509.28959891230454,0)"><line stroke="currentColor" y2="6"></line><text fill="currentColor" y="9" dy="0.71em" style="fill: #ffffff;"></text></g><g class="tick" opacity="1" transform="translate(514.2522093813732,0)"><line stroke="currentColor" y2="6"></line><text fill="currentColor" y="9" dy="0.71em" style="fill: #ffffff;"></text></g><g class="tick" opacity="1" transform="translate(519.2148198504419,0)"><line stroke="currentColor" y2="6"></line><text fill="currentColor" y="9" dy="0.71em" style="fill: #ffffff;"></text></g><g class="tick" opacity="1" transform="translate(524.1774303195106,0)"><line stroke="currentColor" y2="6"></line><text fill="currentColor" y="9" dy="0.71em" style="fill: #ffffff;"></text></g><g class="tick" opacity="1" transform="translate(529.1400407885792,0)"><line stroke="currentColor" y2="6"></line><text fill="currentColor" y="9" dy="0.71em" style="fill: #ffffff;"></text></g><g class="tick" opacity="1" transform="translate(534.1026512576478,0)"><line stroke="currentColor" y2="6"></line><text fill="currentColor" y="9" dy="0.71em" style="fill: #ffffff;"></text></g><g class="tick" opacity="1" transform="translate(539.0652617267165,0)"><line stroke="currentColor" y2="6"></line><text fill="currentColor" y="9" dy="0.71em" style="fill: #ffffff;"></text></g><g class="tick" opacity="1" transform="translate(544.0278721957852,0)"><line stroke="currentColor" y2="6"></line><text fill="currentColor" y="9" dy="0.71em" style="fill: #ffffff;"></text></g><g class="tick" opacity="1" transform="translate(548.9904826648539,0)"><line stroke="currentColor" y2="6"></line><text fill="currentColor" y="9" dy="0.71em" style="fill: #ffffff;"></text></g><g class="tick" opacity="1" transform="translate(553.9530931339225,0)"><line stroke="currentColor" y2="6"></line><text fill="currentColor" y="9" dy="0.71em" style="fill: #ffffff;"></text></g><g class="tick" opacity="1" transform="translate(558.9157036029912,0)"><line stroke="currentColor" y2="6"></line><text fill="currentColor" y="9" dy="0.71em" style="fill: #ffffff;"></text></g><g class="tick" opacity="1" transform="translate(563.8783140720598,0)"><line stroke="currentColor" y2="6"></line><text fill="currentColor" y="9" dy="0.71em" style="fill: #ffffff;"></text></g><g class="tick" opacity="1" transform="translate(568.8409245411285,0)"><line stroke="currentColor" y2="6"></line><text fill="currentColor" y="9" dy="0.71em" style="fill: #ffffff;"></text></g><g class="tick" opacity="1" transform="translate(573.8035350101972,0)"><line stroke="currentColor" y2="6"></line><text fill="currentColor" y="9" dy="0.71em" style="fill: #ffffff;"></text></g><g class="tick" opacity="1" transform="translate(578.7661454792658,0)"><line stroke="currentColor" y2="6"></line><text fill="currentColor" y="9" dy="0.71em" style="fill: #ffffff;"></text></g><g class="tick" opacity="1" transform="translate(583.7287559483344,0)"><line stroke="currentColor" y2="6"></line><text fill="currentColor" y="9" dy="0.71em" style="fill: #ffffff;"></text></g><g class="tick" opacity="1" transform="translate(588.6913664174032,0)"><line stroke="currentColor" y2="6"></line><text fill="currentColor" y="9" dy="0.71em" style="fill: #ffffff;"></text></g><g class="tick" opacity="1" transform="translate(593.6539768864718,0)"><line stroke="currentColor" y2="6"></line><text fill="currentColor" y="9" dy="0.71em" style="fill: #ffffff;"></text></g><g class="tick" opacity="1" transform="translate(598.6165873555404,0)"><line stroke="currentColor" y2="6"></line><text fill="currentColor" y="9" dy="0.71em" style="fill: #ffffff;"></text></g><g class="tick" opacity="1" transform="translate(603.5791978246091,0)"><line stroke="currentColor" y2="6"></line><text fill="currentColor" y="9" dy="0.71em" style="fill: #ffffff;"></text></g><g class="tick" opacity="1" transform="translate(608.5418082936777,0)"><line stroke="currentColor" y2="6"></line><text fill="currentColor" y="9" dy="0.71em" style="fill: #ffffff;"></text></g><g class="tick" opacity="1" transform="translate(613.5044187627465,0)"><line stroke="currentColor" y2="6"></line><text fill="currentColor" y="9" dy="0.71em" style="fill: #ffffff;"></text></g><g class="tick" opacity="1" transform="translate(618.4670292318151,0)"><line stroke="currentColor" y2="6"></line><text fill="currentColor" y="9" dy="0.71em" style="fill: #ffffff;"></text></g><g class="tick" opacity="1" transform="translate(623.4296397008837,0)"><line stroke="currentColor" y2="6"></line><text fill="currentColor" y="9" dy="0.71em" style="fill: #ffffff;"></text></g><g class="tick" opacity="1" transform="translate(628.3922501699524,0)"><line stroke="currentColor" y2="6"></line><text fill="currentColor" y="9" dy="0.71em" style="fill: #ffffff;"></text></g><g class="tick" opacity="1" transform="translate(633.3548606390211,0)"><line stroke="currentColor" y2="6"></line><text fill="currentColor" y="9" dy="0.71em" style="fill: #ffffff;"></text></g><g class="tick" opacity="1" transform="translate(638.3174711080898,0)"><line stroke="currentColor" y2="6"></line><text fill="currentColor" y="9" dy="0.71em" style="fill: #ffffff;"></text></g><g class="tick" opacity="1" transform="translate(643.2800815771584,0)"><line stroke="currentColor" y2="6"></line><text fill="currentColor" y="9" dy="0.71em" style="fill: #ffffff;"></text></g><g class="tick" opacity="1" transform="translate(648.242692046227,0)"><line stroke="currentColor" y2="6"></line><text fill="currentColor" y="9" dy="0.71em" style="fill: #ffffff;"></text></g><g class="tick" opacity="1" transform="translate(653.2053025152957,0)"><line stroke="currentColor" y2="6"></line><text fill="currentColor" y="9" dy="0.71em" style="fill: #ffffff;"></text></g><g class="tick" opacity="1" transform="translate(658.1679129843644,0)"><line stroke="currentColor" y2="6"></line><text fill="currentColor" y="9" dy="0.71em" style="fill: #ffffff;"></text></g><g class="tick" opacity="1" transform="translate(663.130523453433,0)"><line stroke="currentColor" y2="6"></line><text fill="currentColor" y="9" dy="0.71em" style="fill: #ffffff;"></text></g><g class="tick" opacity="1" transform="translate(668.0931339225017,0)"><line stroke="currentColor" y2="6"></line><text fill="currentColor" y="9" dy="0.71em" style="fill: #ffffff;"></text></g><g class="tick" opacity="1" transform="translate(673.0557443915703,0)"><line stroke="currentColor" y2="6"></line><text fill="currentColor" y="9" dy="0.71em" style="fill: #ffffff;"></text></g><g class="tick" opacity="1" transform="translate(678.0183548606391,0)"><line stroke="currentColor" y2="6"></line><text fill="currentColor" y="9" dy="0.71em" style="fill: #ffffff;"></text></g><g class="tick" opacity="1" transform="translate(682.9809653297077,0)"><line stroke="currentColor" y2="6"></line><text fill="currentColor" y="9" dy="0.71em" style="fill: #ffffff;"></text></g><g class="tick" opacity="1" transform="translate(687.9435757987764,0)"><line stroke="currentColor" y2="6"></line><text fill="currentColor" y="9" dy="0.71em" style="fill: #ffffff;"></text></g><g class="tick" opacity="1" transform="translate(692.906186267845,0)"><line stroke="currentColor" y2="6"></line><text fill="currentColor" y="9" dy="0.71em" style="fill: #ffffff;"></text></g><g class="tick" opacity="1" transform="translate(697.8687967369136,0)"><line stroke="currentColor" y2="6"></line><text fill="currentColor" y="9" dy="0.71em" style="fill: #ffffff;"></text></g><g class="tick" opacity="1" transform="translate(702.8314072059824,0)"><line stroke="currentColor" y2="6"></line><text fill="currentColor" y="9" dy="0.71em" style="fill: #ffffff;"></text></g><g class="tick" opacity="1" transform="translate(707.794017675051,0)"><line stroke="currentColor" y2="6"></line><text fill="currentColor" y="9" dy="0.71em" style="fill: #ffffff;"></text></g><g class="tick" opacity="1" transform="translate(712.7566281441196,0)"><line stroke="currentColor" y2="6"></line><text fill="currentColor" y="9" dy="0.71em" style="fill: #ffffff;"></text></g><g class="tick" opacity="1" transform="translate(717.7192386131883,0)"><line stroke="currentColor" y2="6"></line><text fill="currentColor" y="9" dy="0.71em" style="fill: #ffffff;"></text></g><g class="tick" opacity="1" transform="translate(722.681849082257,0)"><line stroke="currentColor" y2="6"></line><text fill="currentColor" y="9" dy="0.71em" style="fill: #ffffff;"></text></g><g class="tick" opacity="1" transform="translate(727.6444595513257,0)"><line stroke="currentColor" y2="6"></line><text fill="currentColor" y="9" dy="0.71em" style="fill: #ffffff;"></text></g><g class="tick" opacity="1" transform="translate(732.6070700203943,0)"><line stroke="currentColor" y2="6"></line><text fill="currentColor" y="9" dy="0.71em" style="fill: #ffffff;"></text></g><g class="tick" opacity="1" transform="translate(737.5696804894629,0)"><line stroke="currentColor" y2="6"></line><text fill="currentColor" y="9" dy="0.71em" style="fill: #ffffff;"></text></g><g class="tick" opacity="1" transform="translate(742.5322909585316,0)"><line stroke="currentColor" y2="6"></line><text fill="currentColor" y="9" dy="0.71em" style="fill: #ffffff;"></text></g><g class="tick" opacity="1" transform="translate(747.4949014276003,0)"><line stroke="currentColor" y2="6"></line><text fill="currentColor" y="9" dy="0.71em" style="fill: #ffffff;"></text></g><g class="tick" opacity="1" transform="translate(752.457511896669,0)"><line stroke="currentColor" y2="6"></line><text fill="currentColor" y="9" dy="0.71em" style="fill: #ffffff;"></text></g><g class="tick" opacity="1" transform="translate(757.4201223657376,0)"><line stroke="currentColor" y2="6"></line><text fill="currentColor" y="9" dy="0.71em" style="fill: #ffffff;"></text></g><g class="tick" opacity="1" transform="translate(762.3827328348062,0)"><line stroke="currentColor" y2="6"></line><text fill="currentColor" y="9" dy="0.71em" style="fill: #ffffff;"></text></g><g class="tick" opacity="1" transform="translate(767.345343303875,0)"><line stroke="currentColor" y2="6"></line><text fill="currentColor" y="9" dy="0.71em" style="fill: #ffffff;"></text></g><g class="tick" opacity="1" transform="translate(772.3079537729436,0)"><line stroke="currentColor" y2="6"></line><text fill="currentColor" y="9" dy="0.71em" style="fill: #ffffff;"></text></g><g class="tick" opacity="1" transform="translate(777.2705642420123,0)"><line stroke="currentColor" y2="6"></line><text fill="currentColor" y="9" dy="0.71em" style="fill: #ffffff;"></text></g></g><g transform="translate(50,0)" fill="none" font-size="10" font-family="sans-serif" text-anchor="end"><path class="domain" stroke="#ffffff" d="M-6,370.5H0.5V20.5H-6"></path><g class="tick" opacity="1" transform="translate(0,370.5)"><line stroke="currentColor" x2="-6"></line><text fill="currentColor" x="-9" dy="0.32em" style="fill: #ffffff;">0</text></g><g class="tick" opacity="1" transform="translate(0,300.5)"><line stroke="currentColor" x2="-6"></line><text fill="currentColor" x="-9" dy="0.32em" style="fill: #ffffff;">100</text></g><g class="tick" opacity="1" transform="translate(0,230.5)"><line stroke="currentColor" x2="-6"></line><text fill="currentColor" x="-9" dy="0.32em" style="fill: #ffffff;">200</text></g><g class="tick" opacity="1" transform="translate(0,160.5)"><line stroke="currentColor" x2="-6"></line><text fill="currentColor" x="-9" dy="0.32em" style="fill: #ffffff;">300</text></g><g class="tick" opacity="1" transform="translate(0,90.49999999999999)"><line stroke="currentColor" x2="-6"></line><text fill="currentColor" x="-9" dy="0.32em" style="fill: #ffffff;">400</text></g><g class="tick" opacity="1" transform="translate(0,20.5)"><line stroke="currentColor" x2="-6"></line><text fill="currentColor" x="-9" dy="0.32em" style="fill: #ffffff;">500</text></g></g><path fill="none" stroke="#ffffff" stroke-width="2" d="M52.72943575798775,34.70000000000002L57.692046227056416,34.70000000000002L62.65465669612507,34.70000000000002L67.61726716519372,34.70000000000002L72.57987763426239,34.70000000000002L77.54248810333105,34.70000000000002L82.5050985723997,34.70000000000002L87.46770904146837,34.70000000000002L92.43031951053703,34.70000000000002L97.3929299796057,34.70000000000002L102.35554044867436,34.70000000000002L107.31815091774301,34.70000000000002L112.28076138681168,34.70000000000002L117.24337185588034,34.70000000000002L122.20598232494899,34.70000000000002L127.16859279401766,34.70000000000002L132.13120326308632,34.70000000000002L137.09381373215498,34.70000000000002L142.05642420122365,34.70000000000002L147.01903467029229,34.70000000000002L151.98164513936098,34.70000000000002L156.94425560842961,152.055L161.90686607749828,152.055L166.86947654656694,152.055L171.8320870156356,152.055L176.79469748470427,152.055L181.75730795377294,152.055L186.7199184228416,152.055L191.68252889191024,152.055L196.6451393609789,152.055L201.60774983004757,152.055L206.57036029911623,152.055L211.5329707681849,152.055L216.49558123725356,152.055L221.45819170632222,152.055L226.4208021753909,152.055L231.38341264445955,152.055L236.3460231135282,34.70000000000002L241.30863358259685,34.70000000000002L246.27124405166552,34.70000000000002L251.23385452073418,34.70000000000002L256.19646498980285,34.70000000000002L261.1590754588715,34.70000000000002L266.1216859279402,34.70000000000002L271.0842963970088,34.70000000000002L276.0469068660775,34.70000000000002L281.00951733514614,34.70000000000002L285.9721278042148,34.70000000000002L290.9347382732835,34.70000000000002L295.89734874235216,34.70000000000002L300.8599592114208,34.70000000000002L305.82256968048944,34.70000000000002L310.78518014955813,34.70000000000002L315.74779061862677,34.70000000000002L320.71040108769546,34.70000000000002L325.6730115567641,34.70000000000002L330.63562202583273,34.70000000000002L335.5982324949014,34.70000000000002L340.56084296397006,34.70000000000002L345.52345343303875,34.70000000000002L350.4860639021074,34.70000000000002L355.4486743711761,34.70000000000002L360.4112848402447,34.70000000000002L365.3738953093134,34.70000000000002L370.33650577838205,202.35000000000002L375.2991162474507,202.35000000000002L380.2617267165194,202.35000000000002L385.224337185588,202.35000000000002L390.1869476546567,202.35000000000002L395.14955812372534,202.35000000000002L400.11216859279403,202.35000000000002L405.07477906186267,202.35000000000002L410.03738953093136,202.35000000000002L415,202.35000000000002L419.96261046906864,202.35000000000002L424.92522093813733,202.35000000000002L429.88783140720597,202.35000000000002L434.85044187627466,202.35000000000002L439.8130523453433,202.35000000000002L444.775662814412,34.70000000000002L449.7382732834806,34.70000000000002L454.70088375254926,34.70000000000002L459.66349422161795,34.70000000000002L464.6261046906866,34.70000000000002L469.5887151597553,34.70000000000002L474.5513256288239,34.70000000000002L479.5139360978926,34.70000000000002L484.47654656696125,34.70000000000002L489.4391570360299,34.70000000000002L494.4017675050986,34.70000000000002L499.3643779741672,34.70000000000002L504.3269884432359,34.70000000000002L509.28959891230454,34.70000000000002L514.2522093813732,34.70000000000002L519.2148198504419,34.70000000000002L524.1774303195106,34.70000000000002L529.1400407885792,34.70000000000002L534.1026512576478,34.70000000000002L539.0652617267165,202.35000000000002L544.0278721957852,202.35000000000002L548.9904826648539,202.35000000000002L553.9530931339225,202.35000000000002L558.9157036029912,202.35000000000002L563.8783140720598,202.35000000000002L568.8409245411285,202.35000000000002L573.8035350101972,202.35000000000002L578.7661454792658,202.35000000000002L583.7287559483344,202.35000000000002L588.6913664174032,202.35000000000002L593.6539768864718,202.35000000000002L598.6165873555404,202.35000000000002L603.5791978246091,202.35000000000002L608.5418082936777,202.35000000000002L613.5044187627465,34.70000000000002L618.4670292318151,34.70000000000002L623.4296397008837,34.70000000000002L628.3922501699524,34.70000000000002L633.3548606390211,34.70000000000002L638.3174711080898,34.70000000000002L643.2800815771584,34.70000000000002L648.242692046227,34.70000000000002L653.2053025152957,34.70000000000002L658.1679129843644,34.70000000000002L663.130523453433,34.70000000000002L668.0931339225017,34.70000000000002L673.0557443915703,34.70000000000002L678.0183548606391,34.70000000000002L682.9809653297077,34.70000000000002L687.9435757987764,34.70000000000002L692.906186267845,34.70000000000002L697.8687967369136,34.70000000000002L702.8314072059824,34.70000000000002L707.794017675051,34.70000000000002L712.7566281441196,34.70000000000002L717.7192386131883,34.70000000000002L722.681849082257,34.70000000000002L727.6444595513257,34.70000000000002L732.6070700203943,34.70000000000002L737.5696804894629,34.70000000000002L742.5322909585316,34.70000000000002L747.4949014276003,34.70000000000002L752.457511896669,34.70000000000002L757.4201223657376,34.70000000000002L762.3827328348062,34.70000000000002L767.345343303875,34.70000000000002L772.3079537729436,34.70000000000002L777.2705642420123,235.88"></path></svg>