<svg xmlns="http://www.w3.org/2000/svg" width="800" height="400" style="background-color: rgb(30, 30, 30);"><g transform="translate(0,370)" fill="none" font-size="10" font-family="sans-serif" text-anchor="middle"><path class="domain" stroke="#ffffff" d="M50.5,0.5H780.5"></path><g class="tick" opacity="1" transform="translate(53.549955791335115,0)"><line stroke="currentColor" y2="6"></line><text fill="currentColor" y="9" dy="0.71em" style="fill: #ffffff;"></text></g><g class="tick" opacity="1" transform="translate(60.004420866489845,0)"><line stroke="currentColor" y2="6"></line><text fill="currentColor" y="9" dy="0.71em" style="fill: #ffffff;"></text></g><g class="tick" opacity="1" transform="translate(66.45888594164458,0)"><line stroke="currentColor" y2="6"></line><text fill="currentColor" y="9" dy="0.71em" style="fill: #ffffff;"></text></g><g class="tick" opacity="1" transform="translate(72.91335101679931,0)"><line stroke="currentColor" y2="6"></line><text fill="currentColor" y="9" dy="0.71em" style="fill: #ffffff;"></text></g><g class="tick" opacity="1" transform="translate(79.36781609195404,0)"><line stroke="currentColor" y2="6"></line><text fill="currentColor" y="9" dy="0.71em" style="fill: #ffffff;"></text></g><g class="tick" opacity="1" transform="translate(85.82228116710877,0)"><line stroke="currentColor" y2="6"></line><text fill="currentColor" y="9" dy="0.71em" style="fill: #ffffff;"></text></g><g class="tick" opacity="1" transform="translate(92.2767462422635,0)"><line stroke="currentColor" y2="6"></line><text fill="currentColor" y="9" dy="0.71em" style="fill: #ffffff;"></text></g><g class="tick" opacity="1" transform="translate(98.73121131741823,0)"><line stroke="currentColor" y2="6"></line><text fill="currentColor" y="9" dy="0.71em" style="fill: #ffffff;"></text></g><g class="tick" opacity="1" transform="translate(105.18567639257296,0)"><line stroke="currentColor" y2="6"></line><text fill="currentColor" y="9" dy="0.71em" style="fill: #ffffff;"></text></g><g class="tick" opacity="1" transform="translate(111.64014146772769,0)"><line stroke="currentColor" y2="6"></line><text fill="currentColor" y="9" dy="0.71em" style="fill: #ffffff;"></text></g><g class="tick" opacity="1" transform="translate(118.09460654288242,0)"><line stroke="currentColor" y2="6"></line><text fill="currentColor" y="9" dy="0.71em" style="fill: #ffffff;"></text></g><g class="tick" opacity="1" transform="translate(124.54907161803715,0)"><line stroke="currentColor" y2="6"></line><text fill="currentColor" y="9" dy="0.71em" style="fill: #ffffff;"></text></g><g class="tick" opacity="1" transform="translate(131.00353669319188,0)"><line stroke="currentColor" y2="6"></line><text fill="currentColor" y="9" dy="0.71em" style="fill: #ffffff;"></text></g><g class="tick" opacity="1" transform="translate(137.4580017683466,0)"><line stroke="currentColor" y2="6"></line><text fill="currentColor" y="9" dy="0.71em" style="fill: #ffffff;"></text></g><g class="tick" opacity="1" transform="translate(143.91246684350133,0)"><line stroke="currentColor" y2="6"></line><text fill="currentColor" y="9" dy="0.71em" style="fill: #ffffff;"></text></g><g class="tick" opacity="1" transform="translate(150.36693191865606,0)"><line stroke="currentColor" y2="6"></line><text fill="currentColor" y="9" dy="0.71em" style="fill: #ffffff;"></text></g><g class="tick" opacity="1" transform="translate(156.8213969938108,0)"><line stroke="currentColor" y2="6"></line><text fill="currentColor" y="9" dy="0.71em" style="fill: #ffffff;"></text></g><g class="tick" opacity="1" transform="translate(163.27586206896552,0)"><line stroke="currentColor" y2="6"></line><text fill="currentColor" y="9" dy="0.71em" style="fill: #ffffff;"></text></g><g class="tick" opacity="1" transform="translate(169.73032714412025,0)"><line stroke="currentColor" y2="6"></line><text fill="currentColor" y="9" dy="0.71em" style="fill: #ffffff;"></text></g><g class="tick" opacity="1" transform="translate(176.18479221927498,0)"><line stroke="currentColor" y2="6"></line><text fill="currentColor" y="9" dy="0.71em" style="fill: #ffffff;"></text></g><g class="tick" opacity="1" transform="translate(182.6392572944297,0)"><line stroke="currentColor" y2="6"></line><text fill="currentColor" y="9" dy="0.71em" style="fill: #ffffff;"></text></g><g class="tick" opacity="1" transform="translate(189.09372236958444,0)"><line stroke="currentColor" y2="6"></line><text fill="currentColor" y="9" dy="0.71em" style="fill: #ffffff;"></text></g><g class="tick" opacity="1" transform="translate(195.54818744473917,0)"><line stroke="currentColor" y2="6"></line><text fill="currentColor" y="9" dy="0.71em" style="fill: #ffffff;"></text></g><g class="tick" opacity="1" transform="translate(202.0026525198939,0)"><line stroke="currentColor" y2="6"></line><text fill="currentColor" y="9" dy="0.71em" style="fill: #ffffff;"></text></g><g class="tick" opacity="1" transform="translate(208.45711759504863,0)"><line stroke="currentColor" y2="6"></line><text fill="currentColor" y="9" dy="0.71em" style="fill: #ffffff;"></text></g><g class="tick" opacity="1" transform="translate(214.91158267020336,0)"><line stroke="currentColor" y2="6"></line><text fill="currentColor" y="9" dy="0.71em" style="fill: #ffffff;"></text></g><g class="tick" opacity="1" transform="translate(221.3660477453581,0)"><line stroke="currentColor" y2="6"></line><text fill="currentColor" y="9" dy="0.71em" style="fill: #ffffff;"></text></g><g class="tick" opacity="1" transform="translate(227.82051282051282,0)"><line stroke="currentColor" y2="6"></line><text fill="currentColor" y="9" dy="0.71em" style="fill: #ffffff;"></text></g><g class="tick" opacity="1" transform="translate(234.27497789566755,0)"><line stroke="currentColor" y2="6"></line><text fill="currentColor" y="9" dy="0.71em" style="fill: #ffffff;"></text></g><g class="tick" opacity="1" transform="translate(240.72944297082228,0)"><line stroke="currentColor" y2="6"></line><text fill="currentColor" y="9" dy="0.71em" style="fill: #ffffff;"></text></g><g class="tick" opacity="1" transform="translate(247.183908045977,0)"><line stroke="currentColor" y2="6"></line><text fill="currentColor" y="9" dy="0.71em" style="fill: #ffffff;"></text></g><g class="tick" opacity="1" transform="translate(253.63837312113174,0)"><line stroke="currentColor" y2="6"></line><text fill="currentColor" y="9" dy="0.71em" style="fill: #ffffff;"></text></g><g class="tick" opacity="1" transform="translate(260.09283819628644,0)"><line stroke="currentColor" y2="6"></line><text fill="currentColor" y="9" dy="0.71em" style="fill: #ffffff;"></text></g><g class="tick" opacity="1" transform="translate(266.54730327144114,0)"><line stroke="currentColor" y2="6"></line><text fill="currentColor" y="9" dy="0.71em" style="fill: #ffffff;"></text></g><g class="tick" opacity="1" transform="translate(273.0017683465959,0)"><line stroke="currentColor" y2="6"></line><text fill="currentColor" y="9" dy="0.71em" style="fill: #ffffff;"></text></g><g class="tick" opacity="1" transform="translate(279.45623342175065,0)"><line stroke="currentColor" y2="6"></line><text fill="currentColor" y="9" dy="0.71em" style="fill: #ffffff;"></text></g><g class="tick" opacity="1" transform="translate(285.91069849690535,0)"><line stroke="currentColor" y2="6"></line><text fill="currentColor" y="9" dy="0.71em" style="fill: #ffffff;"></text></g><g class="tick" opacity="1" transform="translate(292.36516357206006,0)"><line stroke="currentColor" y2="6"></line><text fill="currentColor" y="9" dy="0.71em" style="fill: #ffffff;"></text></g><g class="tick" opacity="1" transform="translate(298.8196286472148,0)"><line stroke="currentColor" y2="6"></line><text fill="currentColor" y="9" dy="0.71em" style="fill: #ffffff;"></text></g><g class="tick" opacity="1" transform="translate(305.27409372236957,0)"><line stroke="currentColor" y2="6"></line><text fill="currentColor" y="9" dy="0.71em" style="fill: #ffffff;"></text></g><g class="tick" opacity="1" transform="translate(311.7285587975243,0)"><line stroke="currentColor" y2="6"></line><text fill="currentColor" y="9" dy="0.71em" style="fill: #ffffff;"></text></g><g class="tick" opacity="1" transform="translate(318.18302387267903,0)"><line stroke="currentColor" y2="6"></line><text fill="currentColor" y="9" dy="0.71em" style="fill: #ffffff;"></text></g><g class="tick" opacity="1" transform="translate(324.63748894783373,0)"><line stroke="currentColor" y2="6"></line><text fill="currentColor" y="9" dy="0.71em" style="fill: #ffffff;"></text></g><g class="tick" opacity="1" transform="translate(331.09195402298843,0)"><line stroke="currentColor" y2="6"></line><text fill="currentColor" y="9" dy="0.71em" style="fill: #ffffff;"></text></g><g class="tick" opacity="1" transform="translate(337.5464190981432,0)"><line stroke="currentColor" y2="6"></line><text fill="currentColor" y="9" dy="0.71em" style="fill: #ffffff;"></text></g><g class="tick" opacity="1" transform="translate(344.00088417329795,0)"><line stroke="currentColor" y2="6"></line><text fill="currentColor" y="9" dy="0.71em" style="fill: #ffffff;"></text></g><g class="tick" opacity="1" transform="translate(350.45534924845265,0)"><line stroke="currentColor" y2="6"></line><text fill="currentColor" y="9" dy="0.71em" style="fill: #ffffff;"></text></g><g class="tick" opacity="1" transform="translate(356.90981432360735,0)"><line stroke="currentColor" y2="6"></line><text fill="currentColor" y="9" dy="0.71em" style="fill: #ffffff;"></text></g><g class="tick" opacity="1" transform="translate(363.3642793987621,0)"><line stroke="currentColor" y2="6"></line><text fill="currentColor" y="9" dy="0.71em" style="fill: #ffffff;"></text></g><g class="tick" opacity="1" transform="translate(369.81874447391687,0)"><line stroke="currentColor" y2="6"></line><text fill="currentColor" y="9" dy="0.71em" style="fill: #ffffff;"></text></g><g class="tick" opacity="1" transform="translate(376.27320954907157,0)"><line stroke="currentColor" y2="6"></line><text fill="currentColor" y="9" dy="0.71em" style="fill: #ffffff;"></text></g><g class="tick" opacity="1" transform="translate(382.72767462422627,0)"><line stroke="currentColor" y2="6"></line><text fill="currentColor" y="9" dy="0.71em" style="fill: #ffffff;"></text></g><g class="tick" opacity="1" transform="translate(389.182139699381,0)"><line stroke="currentColor" y2="6"></line><text fill="currentColor" y="9" dy="0.71em" style="fill: #ffffff;"></text></g><g class="tick" opacity="1" transform="translate(395.6366047745358,0)"><line stroke="currentColor" y2="6"></line><text fill="currentColor" y="9" dy="0.71em" style="fill: #ffffff;"></text></g><g class="tick" opacity="1" transform="translate(402.0910698496905,0)"><line stroke="currentColor" y2="6"></line><text fill="currentColor" y="9" dy="0.71em" style="fill: #ffffff;"></text></g><g class="tick" opacity="1" transform="translate(408.5455349248452,0)"><line stroke="currentColor" y2="6"></line><text fill="currentColor" y="9" dy="0.71em" style="fill: #ffffff;"></text></g><g class="tick" opacity="1" transform="translate(414.99999999999994,0)"><line stroke="currentColor" y2="6"></line><text fill="currentColor" y="9" dy="0.71em" style="fill: #ffffff;"></text></g><g class="tick" opacity="1" transform="translate(421.4544650751547,0)"><line stroke="currentColor" y2="6"></line><text fill="currentColor" y="9" dy="0.71em" style="fill: #ffffff;"></text></g><g class="tick" opacity="1" transform="translate(427.9089301503094,0)"><line stroke="currentColor" y2="6"></line><text fill="currentColor" y="9" dy="0.71em" style="fill: #ffffff;"></text></g><g class="tick" opacity="1" transform="translate(434.3633952254641,0)"><line stroke="currentColor" y2="6"></line><text fill="currentColor" y="9" dy="0.71em" style="fill: #ffffff;"></text></g><g class="tick" opacity="1" transform="translate(440.81786030061886,0)"><line stroke="currentColor" y2="6"></line><text fill="currentColor" y="9" dy="0.71em" style="fill: #ffffff;"></text></g><g class="tick" opacity="1" transform="translate(447.2723253757736,0)"><line stroke="currentColor" y2="6"></line><text fill="currentColor" y="9" dy="0.71em" style="fill: #ffffff;"></text></g><g class="tick" opacity="1" transform="translate(453.7267904509283,0)"><line stroke="currentColor" y2="6"></line><text fill="currentColor" y="9" dy="0.71em" style="fill: #ffffff;"></text></g><g class="tick" opacity="1" transform="translate(460.181255526083,0)"><line stroke="currentColor" y2="6"></line><text fill="currentColor" y="9" dy="0.71em" style="fill: #ffffff;"></text></g><g class="tick" opacity="1" transform="translate(466.6357206012378,0)"><line stroke="currentColor" y2="6"></line><text fill="currentColor" y="9" dy="0.71em" style="fill: #ffffff;"></text></g><g class="tick" opacity="1" transform="translate(473.09018567639254,0)"><line stroke="currentColor" y2="6"></line><text fill="currentColor" y="9" dy="0.71em" style="fill: #ffffff;"></text></g><g class="tick" opacity="1" transform="translate(479.54465075154724,0)"><line stroke="currentColor" y2="6"></line><text fill="currentColor" y="9" dy="0.71em" style="fill: #ffffff;"></text></g><g class="tick" opacity="1" transform="translate(485.99911582670194,0)"><line stroke="currentColor" y2="6"></line><text fill="currentColor" y="9" dy="0.71em" style="fill: #ffffff;"></text></g><g class="tick" opacity="1" transform="translate(492.4535809018567,0)"><line stroke="currentColor" y2="6"></line><text fill="currentColor" y="9" dy="0.71em" style="fill: #ffffff;"></text></g><g class="tick" opacity="1" transform="translate(498.90804597701145,0)"><line stroke="currentColor" y2="6"></line><text fill="currentColor" y="9" dy="0.71em" style="fill: #ffffff;"></text></g><g class="tick" opacity="1" transform="translate(505.36251105216616,0)"><line stroke="currentColor" y2="6"></line><text fill="currentColor" y="9" dy="0.71em" style="fill: #ffffff;"></text></g><g class="tick" opacity="1" transform="translate(511.81697612732086,0)"><line stroke="currentColor" y2="6"></line><text fill="currentColor" y="9" dy="0.71em" style="fill: #ffffff;"></text></g><g class="tick" opacity="1" transform="translate(518.2714412024757,0)"><line stroke="currentColor" y2="6"></line><text fill="currentColor" y="9" dy="0.71em" style="fill: #ffffff;"></text></g><g class="tick" opacity="1" transform="translate(524.7259062776304,0)"><line stroke="currentColor" y2="6"></line><text fill="currentColor" y="9" dy="0.71em" style="fill: #ffffff;"></text></g><g class="tick" opacity="1" transform="translate(531.1803713527851,0)"><line stroke="currentColor" y2="6"></line><text fill="currentColor" y="9" dy="0.71em" style="fill: #ffffff;"></text></g><g class="tick" opacity="1" transform="translate(537.6348364279397,0)"><line stroke="currentColor" y2="6"></line><text fill="currentColor" y="9" dy="0.71em" style="fill: #ffffff;"></text></g><g class="tick" opacity="1" transform="translate(544.0893015030945,0)"><line stroke="currentColor" y2="6"></line><text fill="currentColor" y="9" dy="0.71em" style="fill: #ffffff;"></text></g><g class="tick" opacity="1" transform="translate(550.5437665782492,0)"><line stroke="currentColor" y2="6"></line><text fill="currentColor" y="9" dy="0.71em" style="fill: #ffffff;"></text></g><g class="tick" opacity="1" transform="translate(556.998231653404,0)"><line stroke="currentColor" y2="6"></line><text fill="currentColor" y="9" dy="0.71em" style="fill: #ffffff;"></text></g><g class="tick" opacity="1" transform="translate(563.4526967285587,0)"><line stroke="currentColor" y2="6"></line><text fill="currentColor" y="9" dy="0.71em" style="fill: #ffffff;"></text></g><g class="tick" opacity="1" transform="translate(569.9071618037135,0)"><line stroke="currentColor" y2="6"></line><text fill="currentColor" y="9" dy="0.71em" style="fill: #ffffff;"></text></g><g class="tick" opacity="1" transform="translate(576.3616268788683,0)"><line stroke="currentColor" y2="6"></line><text fill="currentColor" y="9" dy="0.71em" style="fill: #ffffff;"></text></g><g class="tick" opacity="1" transform="translate(582.816091954023,0)"><line stroke="currentColor" y2="6"></line><text fill="currentColor" y="9" dy="0.71em" style="fill: #ffffff;"></text></g><g class="tick" opacity="1" transform="translate(589.2705570291776,0)"><line stroke="currentColor" y2="6"></line><text fill="currentColor" y="9" dy="0.71em" style="fill: #ffffff;"></text></g><g class="tick" opacity="1" transform="translate(595.7250221043323,0)"><line stroke="currentColor" y2="6"></line><text fill="currentColor" y="9" dy="0.71em" style="fill: #ffffff;"></text></g><g class="tick" opacity="1" transform="translate(602.1794871794871,0)"><line stroke="currentColor" y2="6"></line><text fill="currentColor" y="9" dy="0.71em" style="fill: #ffffff;"></text></g><g class="tick" opacity="1" transform="translate(608.6339522546418,0)"><line stroke="currentColor" y2="6"></line><text fill="currentColor" y="9" dy="0.71em" style="fill: #ffffff;"></text></g><g class="tick" opacity="1" transform="translate(615.0884173297966,0)"><line stroke="currentColor" y2="6"></line><text fill="currentColor" y="9" dy="0.71em" style="fill: #ffffff;"></text></g><g class="tick" opacity="1" transform="translate(621.5428824049513,0)"><line stroke="currentColor" y2="6"></line><text fill="currentColor" y="9" dy="0.71em" style="fill: #ffffff;"></text></g><g class="tick" opacity="1" transform="translate(627.9973474801061,0)"><line stroke="currentColor" y2="6"></line><text fill="currentColor" y="9" dy="0.71em" style="fill: #ffffff;"></text></g><g class="tick" opacity="1" transform="translate(634.4518125552609,0)"><line stroke="currentColor" y2="6"></line><text fill="currentColor" y="9" dy="0.71em" style="fill: #ffffff;"></text></g><g class="tick" opacity="1" transform="translate(640.9062776304154,0)"><line stroke="currentColor" y2="6"></line><text fill="currentColor" y="9" dy="0.71em" style="fill: #ffffff;"></text></g><g class="tick" opacity="1" transform="translate(647.3607427055701,0)"><line stroke="currentColor" y2="6"></line><text fill="currentColor" y="9" dy="0.71em" style="fill: #ffffff;"></text></g><g class="tick" opacity="1" transform="translate(653.8152077807249,0)"><line stroke="currentColor" y2="6"></line><text fill="currentColor" y="9" dy="0.71em" style="fill: #ffffff;"></text></g><g class="tick" opacity="1" transform="translate(660.2696728558797,0)"><line stroke="currentColor" y2="6"></line><text fill="currentColor" y="9" dy="0.71em" style="fill: #ffffff;"></text></g><g class="tick" opacity="1" transform="translate(666.7241379310344,0)"><line stroke="currentColor" y2="6"></line><text fill="currentColor" y="9" dy="0.71em" style="fill: #ffffff;"></text></g><g class="tick" opacity="1" transform="translate(673.1786030061892,0)"><line stroke="currentColor" y2="6"></line><text fill="currentColor" y="9" dy="0.71em" style="fill: #ffffff;"></text></g><g class="tick" opacity="1" transform="translate(679.6330680813439,0)"><line stroke="currentColor" y2="6"></line><text fill="currentColor" y="9" dy="0.71em" style="fill: #ffffff;"></text></g><g class="tick" opacity="1" transform="translate(686.0875331564987,0)"><line stroke="currentColor" y2="6"></line><text fill="currentColor" y="9" dy="0.71em" style="fill: #ffffff;"></text></g><g class="tick" opacity="1" transform="translate(692.5419982316532,0)"><line stroke="currentColor" y2="6"></line><text fill="currentColor" y="9" dy="0.71em" style="fill: #ffffff;"></text></g><g class="tick" opacity="1" transform="translate(698.996463306808,0)"><line stroke="currentColor" y2="6"></line><text fill="currentColor" y="9" dy="0.71em" style="fill: #ffffff;"></text></g><g class="tick" opacity="1" transform="translate(705.4509283819627,0)"><line stroke="currentColor" y2="6"></line><text fill="currentColor" y="9" dy="0.71em" style="fill: #ffffff;"></text></g><g class="tick" opacity="1" transform="translate(711.9053934571175,0)"><line stroke="currentColor" y2="6"></line><text fill="currentColor" y="9" dy="0.71em" style="fill: #ffffff;"></text></g><g class="tick" opacity="1" transform="translate(718.3598585322723,0)"><line stroke="currentColor" y2="6"></line><text fill="currentColor" y="9" dy="0.71em" style="fill: #ffffff;"></text></g><g class="tick" opacity="1" transform="translate(724.814323607427,0)"><line stroke="currentColor" y2="6"></line><text fill="currentColor" y="9" dy="0.71em" style="fill: #ffffff;"></text></g><g class="tick" opacity="1" transform="translate(731.2687886825818,0)"><line stroke="currentColor" y2="6"></line><text fill="currentColor" y="9" dy="0.71em" style="fill: #ffffff;"></text></g><g class="tick" opacity="1" transform="translate(737.7232537577365,0)"><line stroke="currentColor" y2="6"></line><text fill="currentColor" y="9" dy="0.71em" style="fill: #ffffff;"></text></g><g class="tick" opacity="1" transform="translate(744.1777188328911,0)"><line stroke="currentColor" y2="6"></line><text fill="currentColor" y="9" dy="0.71em" style="fill: #ffffff;"></text></g><g class="tick" opacity="1" transform="translate(750.6321839080458,0)"><line stroke="currentColor" y2="6"></line><text fill="currentColor" y="9" dy="0.71em" style="fill: #ffffff;"></text></g><g class="tick" opacity="1" transform="translate(757.0866489832006,0)"><line stroke="currentColor" y2="6"></line><text fill="currentColor" y="9" dy="0.71em" style="fill: #ffffff;"></text></g><g class="tick" opacity="1" transform="translate(763.5411140583553,0)"><line stroke="currentColor" y2="6"></line><text fill="currentColor" y="9" dy="0.71em" style="fill: #ffffff;"></text></g><g class="tick" opacity="1" transform="translate(769.9955791335101,0)"><line stroke="currentColor" y2="6"></line><text fill="currentColor" y="9" dy="0.71em" style="fill: #ffffff;"></text></g><g class="tick" opacity="1" transform="translate(776.4500442086648,0)"><line stroke="currentColor" y2="6"></line><text fill="currentColor" y="9" dy="0.71em" style="fill: #ffffff;"></text></g></g><g transform="translate(50,0)" fill="none" font-size="10" font-family="sans-serif" text-anchor="end"><path class="domain" stroke="#ffffff" d="M-6,370.5H0.5V20.5H-6"></path><g class="tick" opacity="1" transform="translate(0,370.5)"><line stroke="currentColor" x2="-6"></line><text fill="currentColor" x="-9" dy="0.32em" style="fill: #ffffff;">0</text></g><g class="tick" opacity="1" transform="translate(0,316.6538461538462)"><line stroke="currentColor" x2="-6"></line><text fill="currentColor" x="-9" dy="0.32em" style="fill: #ffffff;">100</text></g><g class="tick" opacity="1" transform="translate(0,262.80769230769226)"><line stroke="currentColor" x2="-6"></line><text fill="currentColor" x="-9" dy="0.32em" style="fill: #ffffff;">200</text></g><g class="tick" opacity="1" transform="translate(0,208.96153846153845)"><line stroke="currentColor" x2="-6"></line><text fill="currentColor" x="-9" dy="0.32em" style="fill: #ffffff;">300</text></g><g class="tick" opacity="1" transform="translate(0,155.1153846153846)"><line stroke="currentColor" x2="-6"></line><text fill="currentColor" x="-9" dy="0.32em" style="fill: #ffffff;">400</text></g><g class="tick" opacity="1" transform="translate(0,101.26923076923076)"><line stroke="currentColor" x2="-6"></line><text fill="currentColor" x="-9" dy="0.32em" style="fill: #ffffff;">500</text></g><g class="tick" opacity="1" transform="translate(0,47.423076923076906)"><line stroke="currentColor" x2="-6"></line><text fill="currentColor" x="-9" dy="0.32em" style="fill: #ffffff;">600</text></g></g><path fill="none" stroke="#ffffff" stroke-width="2" d="M53.549955791335115,26.461538461538446L60.004420866489845,26.461538461538446L66.45888594164458,26.461538461538446L72.91335101679931,26.461538461538446L79.36781609195404,26.461538461538446L85.82228116710877,26.461538461538446L92.2767462422635,26.461538461538446L98.73121131741823,26.461538461538446L105.18567639257296,26.461538461538446L111.64014146772769,26.461538461538446L118.09460654288242,26.461538461538446L124.54907161803715,26.461538461538446L131.00353669319188,26.461538461538446L137.4580017683466,26.461538461538446L143.91246684350133,26.461538461538446L150.36693191865606,26.461538461538446L156.8213969938108,26.461538461538446L163.27586206896552,26.461538461538446L169.73032714412025,26.461538461538446L176.18479221927498,26.461538461538446L182.6392572944297,26.461538461538446L189.09372236958444,26.461538461538446L195.54818744473917,26.461538461538446L202.0026525198939,26.461538461538446L208.45711759504863,26.461538461538446L214.91158267020336,26.461538461538446L221.3660477453581,26.461538461538446L227.82051282051282,26.461538461538446L234.27497789566755,26.461538461538446L240.72944297082228,26.461538461538446L247.183908045977,26.461538461538446L253.63837312113174,26.461538461538446L260.09283819628644,26.461538461538446L266.54730327144114,26.461538461538446L273.0017683465959,26.461538461538446L279.45623342175065,26.461538461538446L285.91069849690535,26.461538461538446L292.36516357206006,26.461538461538446L298.8196286472148,26.461538461538446L305.27409372236957,26.461538461538446L311.7285587975243,26.461538461538446L318.18302387267903,26.461538461538446L324.63748894783373,26.461538461538446L331.09195402298843,26.461538461538446L337.5464190981432,26.461538461538446L344.00088417329795,26.461538461538446L350.45534924845265,26.461538461538446L356.90981432360735,26.461538461538446L363.3642793987621,26.461538461538446L369.81874447391687,26.461538461538446L376.27320954907157,198.23076923076923L382.72767462422627,198.23076923076923L389.182139699381,198.23076923076923L395.6366047745358,198.23076923076923L402.0910698496905,198.23076923076923L408.5455349248452,198.23076923076923L414.99999999999994,198.23076923076923L421.4544650751547,198.23076923076923L427.9089301503094,198.23076923076923L434.3633952254641,198.23076923076923L440.81786030061886,198.23076923076923L447.2723253757736,198.23076923076923L453.7267904509283,198.23076923076923L460.181255526083,198.23076923076923L466.6357206012378,198.23076923076923L473.09018567639254,26.461538461538446L479.54465075154724,26.461538461538446L485.99911582670194,26.461538461538446L492.4535809018567,26.461538461538446L498.90804597701145,26.461538461538446L505.36251105216616,26.461538461538446L511.81697612732086,26.461538461538446L518.2714412024757,26.461538461538446L524.7259062776304,26.461538461538446L531.1803713527851,26.461538461538446L537.6348364279397,26.461538461538446L544.0893015030945,26.461538461538446L550.5437665782492,26.461538461538446L556.998231653404,198.23076923076923L563.4526967285587,198.23076923076923L569.9071618037135,198.23076923076923L576.3616268788683,198.23076923076923L582.816091954023,198.23076923076923L589.2705570291776,198.23076923076923L595.7250221043323,198.23076923076923L602.1794871794871,198.23076923076923L608.6339522546418,198.23076923076923L615.0884173297966,198.23076923076923L621.5428824049513,198.23076923076923L627.9973474801061,198.23076923076923L634.4518125552609,198.23076923076923L640.9062776304154,198.23076923076923L647.3607427055701,26.461538461538446L653.8152077807249,26.461538461538446L660.2696728558797,26.461538461538446L666.7241379310344,26.461538461538446L673.1786030061892,26.461538461538446L679.6330680813439,26.461538461538446L686.0875331564987,26.461538461538446L692.5419982316532,26.461538461538446L698.996463306808,26.461538461538446L705.4509283819627,26.461538461538446L711.9053934571175,26.461538461538446L718.3598585322723,26.461538461538446L724.814323607427,26.461538461538446L731.2687886825818,26.461538461538446L737.7232537577365,26.461538461538446L744.1777188328911,26.461538461538446L750.6321839080458,26.461538461538446L757.0866489832006,26.461538461538446L763.5411140583553,26.461538461538446L769.9955791335101,26.461538461538446L776.4500442086648,26.461538461538446"></path></svg>