<svg xmlns="http://www.w3.org/2000/svg" width="800" height="400" style="background-color: rgb(30, 30, 30);"><g transform="translate(0,370)" fill="none" font-size="10" font-family="sans-serif" text-anchor="middle"><path class="domain" stroke="#ffffff" d="M50.5,0.5H780.5"></path><g class="tick" opacity="1" transform="translate(53.42869342442355,0)"><line stroke="currentColor" y2="6"></line><text fill="currentColor" y="9" dy="0.71em" style="fill: #ffffff;"></text></g><g class="tick" opacity="1" transform="translate(59.66268146883004,0)"><line stroke="currentColor" y2="6"></line><text fill="currentColor" y="9" dy="0.71em" style="fill: #ffffff;"></text></g><g class="tick" opacity="1" transform="translate(65.89666951323653,0)"><line stroke="currentColor" y2="6"></line><text fill="currentColor" y="9" dy="0.71em" style="fill: #ffffff;"></text></g><g class="tick" opacity="1" transform="translate(72.130657557643,0)"><line stroke="currentColor" y2="6"></line><text fill="currentColor" y="9" dy="0.71em" style="fill: #ffffff;"></text></g><g class="tick" opacity="1" transform="translate(78.3646456020495,0)"><line stroke="currentColor" y2="6"></line><text fill="currentColor" y="9" dy="0.71em" style="fill: #ffffff;"></text></g><g class="tick" opacity="1" transform="translate(84.598633646456,0)"><line stroke="currentColor" y2="6"></line><text fill="currentColor" y="9" dy="0.71em" style="fill: #ffffff;"></text></g><g class="tick" opacity="1" transform="translate(90.83262169086248,0)"><line stroke="currentColor" y2="6"></line><text fill="currentColor" y="9" dy="0.71em" style="fill: #ffffff;"></text></g><g class="tick" opacity="1" transform="translate(97.06660973526898,0)"><line stroke="currentColor" y2="6"></line><text fill="currentColor" y="9" dy="0.71em" style="fill: #ffffff;"></text></g><g class="tick" opacity="1" transform="translate(103.30059777967547,0)"><line stroke="currentColor" y2="6"></line><text fill="currentColor" y="9" dy="0.71em" style="fill: #ffffff;"></text></g><g class="tick" opacity="1" transform="translate(109.53458582408196,0)"><line stroke="currentColor" y2="6"></line><text fill="currentColor" y="9" dy="0.71em" style="fill: #ffffff;"></text></g><g class="tick" opacity="1" transform="translate(115.76857386848845,0)"><line stroke="currentColor" y2="6"></line><text fill="currentColor" y="9" dy="0.71em" style="fill: #ffffff;"></text></g><g class="tick" opacity="1" transform="translate(122.00256191289493,0)"><line stroke="currentColor" y2="6"></line><text fill="currentColor" y="9" dy="0.71em" style="fill: #ffffff;"></text></g><g class="tick" opacity="1" transform="translate(128.2365499573014,0)"><line stroke="currentColor" y2="6"></line><text fill="currentColor" y="9" dy="0.71em" style="fill: #ffffff;"></text></g><g class="tick" opacity="1" transform="translate(134.47053800170792,0)"><line stroke="currentColor" y2="6"></line><text fill="currentColor" y="9" dy="0.71em" style="fill: #ffffff;"></text></g><g class="tick" opacity="1" transform="translate(140.70452604611444,0)"><line stroke="currentColor" y2="6"></line><text fill="currentColor" y="9" dy="0.71em" style="fill: #ffffff;"></text></g><g class="tick" opacity="1" transform="translate(146.93851409052093,0)"><line stroke="currentColor" y2="6"></line><text fill="currentColor" y="9" dy="0.71em" style="fill: #ffffff;"></text></g><g class="tick" opacity="1" transform="translate(153.1725021349274,0)"><line stroke="currentColor" y2="6"></line><text fill="currentColor" y="9" dy="0.71em" style="fill: #ffffff;"></text></g><g class="tick" opacity="1" transform="translate(159.4064901793339,0)"><line stroke="currentColor" y2="6"></line><text fill="currentColor" y="9" dy="0.71em" style="fill: #ffffff;"></text></g><g class="tick" opacity="1" transform="translate(165.6404782237404,0)"><line stroke="currentColor" y2="6"></line><text fill="currentColor" y="9" dy="0.71em" style="fill: #ffffff;"></text></g><g class="tick" opacity="1" transform="translate(171.87446626814688,0)"><line stroke="currentColor" y2="6"></line><text fill="currentColor" y="9" dy="0.71em" style="fill: #ffffff;"></text></g><g class="tick" opacity="1" transform="translate(178.10845431255336,0)"><line stroke="currentColor" y2="6"></line><text fill="currentColor" y="9" dy="0.71em" style="fill: #ffffff;"></text></g><g class="tick" opacity="1" transform="translate(184.34244235695985,0)"><line stroke="currentColor" y2="6"></line><text fill="currentColor" y="9" dy="0.71em" style="fill: #ffffff;"></text></g><g class="tick" opacity="1" transform="translate(190.57643040136634,0)"><line stroke="currentColor" y2="6"></line><text fill="currentColor" y="9" dy="0.71em" style="fill: #ffffff;"></text></g><g class="tick" opacity="1" transform="translate(196.81041844577283,0)"><line stroke="currentColor" y2="6"></line><text fill="currentColor" y="9" dy="0.71em" style="fill: #ffffff;"></text></g><g class="tick" opacity="1" transform="translate(203.0444064901793,0)"><line stroke="currentColor" y2="6"></line><text fill="currentColor" y="9" dy="0.71em" style="fill: #ffffff;"></text></g><g class="tick" opacity="1" transform="translate(209.2783945345858,0)"><line stroke="currentColor" y2="6"></line><text fill="currentColor" y="9" dy="0.71em" style="fill: #ffffff;"></text></g><g class="tick" opacity="1" transform="translate(215.5123825789923,0)"><line stroke="currentColor" y2="6"></line><text fill="currentColor" y="9" dy="0.71em" style="fill: #ffffff;"></text></g><g class="tick" opacity="1" transform="translate(221.7463706233988,0)"><line stroke="currentColor" y2="6"></line><text fill="currentColor" y="9" dy="0.71em" style="fill: #ffffff;"></text></g><g class="tick" opacity="1" transform="translate(227.9803586678053,0)"><line stroke="currentColor" y2="6"></line><text fill="currentColor" y="9" dy="0.71em" style="fill: #ffffff;"></text></g><g class="tick" opacity="1" transform="translate(234.21434671221178,0)"><line stroke="currentColor" y2="6"></line><text fill="currentColor" y="9" dy="0.71em" style="fill: #ffffff;"></text></g><g class="tick" opacity="1" transform="translate(240.44833475661827,0)"><line stroke="currentColor" y2="6"></line><text fill="currentColor" y="9" dy="0.71em" style="fill: #ffffff;"></text></g><g class="tick" opacity="1" transform="translate(246.68232280102475,0)"><line stroke="currentColor" y2="6"></line><text fill="currentColor" y="9" dy="0.71em" style="fill: #ffffff;"></text></g><g class="tick" opacity="1" transform="translate(252.91631084543124,0)"><line stroke="currentColor" y2="6"></line><text fill="currentColor" y="9" dy="0.71em" style="fill: #ffffff;"></text></g><g class="tick" opacity="1" transform="translate(259.15029888983776,0)"><line stroke="currentColor" y2="6"></line><text fill="currentColor" y="9" dy="0.71em" style="fill: #ffffff;"></text></g><g class="tick" opacity="1" transform="translate(265.38428693424424,0)"><line stroke="currentColor" y2="6"></line><text fill="currentColor" y="9" dy="0.71em" style="fill: #ffffff;"></text></g><g class="tick" opacity="1" transform="translate(271.61827497865073,0)"><line stroke="currentColor" y2="6"></line><text fill="currentColor" y="9" dy="0.71em" style="fill: #ffffff;"></text></g><g class="tick" opacity="1" transform="translate(277.8522630230572,0)"><line stroke="currentColor" y2="6"></line><text fill="currentColor" y="9" dy="0.71em" style="fill: #ffffff;"></text></g><g class="tick" opacity="1" transform="translate(284.0862510674637,0)"><line stroke="currentColor" y2="6"></line><text fill="currentColor" y="9" dy="0.71em" style="fill: #ffffff;"></text></g><g class="tick" opacity="1" transform="translate(290.3202391118702,0)"><line stroke="currentColor" y2="6"></line><text fill="currentColor" y="9" dy="0.71em" style="fill: #ffffff;"></text></g><g class="tick" opacity="1" transform="translate(296.5542271562767,0)"><line stroke="currentColor" y2="6"></line><text fill="currentColor" y="9" dy="0.71em" style="fill: #ffffff;"></text></g><g class="tick" opacity="1" transform="translate(302.78821520068317,0)"><line stroke="currentColor" y2="6"></line><text fill="currentColor" y="9" dy="0.71em" style="fill: #ffffff;"></text></g><g class="tick" opacity="1" transform="translate(309.02220324508966,0)"><line stroke="currentColor" y2="6"></line><text fill="currentColor" y="9" dy="0.71em" style="fill: #ffffff;"></text></g><g class="tick" opacity="1" transform="translate(315.25619128949614,0)"><line stroke="currentColor" y2="6"></line><text fill="currentColor" y="9" dy="0.71em" style="fill: #ffffff;"></text></g><g class="tick" opacity="1" transform="translate(321.49017933390263,0)"><line stroke="currentColor" y2="6"></line><text fill="currentColor" y="9" dy="0.71em" style="fill: #ffffff;"></text></g><g class="tick" opacity="1" transform="translate(327.7241673783091,0)"><line stroke="currentColor" y2="6"></line><text fill="currentColor" y="9" dy="0.71em" style="fill: #ffffff;"></text></g><g class="tick" opacity="1" transform="translate(333.9581554227156,0)"><line stroke="currentColor" y2="6"></line><text fill="currentColor" y="9" dy="0.71em" style="fill: #ffffff;"></text></g><g class="tick" opacity="1" transform="translate(340.1921434671221,0)"><line stroke="currentColor" y2="6"></line><text fill="currentColor" y="9" dy="0.71em" style="fill: #ffffff;"></text></g><g class="tick" opacity="1" transform="translate(346.4261315115286,0)"><line stroke="currentColor" y2="6"></line><text fill="currentColor" y="9" dy="0.71em" style="fill: #ffffff;"></text></g><g class="tick" opacity="1" transform="translate(352.66011955593507,0)"><line stroke="currentColor" y2="6"></line><text fill="currentColor" y="9" dy="0.71em" style="fill: #ffffff;"></text></g><g class="tick" opacity="1" transform="translate(358.89410760034156,0)"><line stroke="currentColor" y2="6"></line><text fill="currentColor" y="9" dy="0.71em" style="fill: #ffffff;"></text></g><g class="tick" opacity="1" transform="translate(365.12809564474804,0)"><line stroke="currentColor" y2="6"></line><text fill="currentColor" y="9" dy="0.71em" style="fill: #ffffff;"></text></g><g class="tick" opacity="1" transform="translate(371.36208368915453,0)"><line stroke="currentColor" y2="6"></line><text fill="currentColor" y="9" dy="0.71em" style="fill: #ffffff;"></text></g><g class="tick" opacity="1" transform="translate(377.596071733561,0)"><line stroke="currentColor" y2="6"></line><text fill="currentColor" y="9" dy="0.71em" style="fill: #ffffff;"></text></g><g class="tick" opacity="1" transform="translate(383.8300597779675,0)"><line stroke="currentColor" y2="6"></line><text fill="currentColor" y="9" dy="0.71em" style="fill: #ffffff;"></text></g><g class="tick" opacity="1" transform="translate(390.06404782237405,0)"><line stroke="currentColor" y2="6"></line><text fill="currentColor" y="9" dy="0.71em" style="fill: #ffffff;"></text></g><g class="tick" opacity="1" transform="translate(396.29803586678054,0)"><line stroke="currentColor" y2="6"></line><text fill="currentColor" y="9" dy="0.71em" style="fill: #ffffff;"></text></g><g class="tick" opacity="1" transform="translate(402.532023911187,0)"><line stroke="currentColor" y2="6"></line><text fill="currentColor" y="9" dy="0.71em" style="fill: #ffffff;"></text></g><g class="tick" opacity="1" transform="translate(408.7660119555935,0)"><line stroke="currentColor" y2="6"></line><text fill="currentColor" y="9" dy="0.71em" style="fill: #ffffff;"></text></g><g class="tick" opacity="1" transform="translate(415,0)"><line stroke="currentColor" y2="6"></line><text fill="currentColor" y="9" dy="0.71em" style="fill: #ffffff;"></text></g><g class="tick" opacity="1" transform="translate(421.2339880444065,0)"><line stroke="currentColor" y2="6"></line><text fill="currentColor" y="9" dy="0.71em" style="fill: #ffffff;"></text></g><g class="tick" opacity="1" transform="translate(427.467976088813,0)"><line stroke="currentColor" y2="6"></line><text fill="currentColor" y="9" dy="0.71em" style="fill: #ffffff;"></text></g><g class="tick" opacity="1" transform="translate(433.70196413321946,0)"><line stroke="currentColor" y2="6"></line><text fill="currentColor" y="9" dy="0.71em" style="fill: #ffffff;"></text></g><g class="tick" opacity="1" transform="translate(439.93595217762595,0)"><line stroke="currentColor" y2="6"></line><text fill="currentColor" y="9" dy="0.71em" style="fill: #ffffff;"></text></g><g class="tick" opacity="1" transform="translate(446.16994022203244,0)"><line stroke="currentColor" y2="6"></line><text fill="currentColor" y="9" dy="0.71em" style="fill: #ffffff;"></text></g><g class="tick" opacity="1" transform="translate(452.4039282664389,0)"><line stroke="currentColor" y2="6"></line><text fill="currentColor" y="9" dy="0.71em" style="fill: #ffffff;"></text></g><g class="tick" opacity="1" transform="translate(458.6379163108454,0)"><line stroke="currentColor" y2="6"></line><text fill="currentColor" y="9" dy="0.71em" style="fill: #ffffff;"></text></g><g class="tick" opacity="1" transform="translate(464.8719043552519,0)"><line stroke="currentColor" y2="6"></line><text fill="currentColor" y="9" dy="0.71em" style="fill: #ffffff;"></text></g><g class="tick" opacity="1" transform="translate(471.1058923996584,0)"><line stroke="currentColor" y2="6"></line><text fill="currentColor" y="9" dy="0.71em" style="fill: #ffffff;"></text></g><g class="tick" opacity="1" transform="translate(477.3398804440649,0)"><line stroke="currentColor" y2="6"></line><text fill="currentColor" y="9" dy="0.71em" style="fill: #ffffff;"></text></g><g class="tick" opacity="1" transform="translate(483.57386848847136,0)"><line stroke="currentColor" y2="6"></line><text fill="currentColor" y="9" dy="0.71em" style="fill: #ffffff;"></text></g><g class="tick" opacity="1" transform="translate(489.80785653287785,0)"><line stroke="currentColor" y2="6"></line><text fill="currentColor" y="9" dy="0.71em" style="fill: #ffffff;"></text></g><g class="tick" opacity="1" transform="translate(496.04184457728434,0)"><line stroke="currentColor" y2="6"></line><text fill="currentColor" y="9" dy="0.71em" style="fill: #ffffff;"></text></g><g class="tick" opacity="1" transform="translate(502.2758326216908,0)"><line stroke="currentColor" y2="6"></line><text fill="currentColor" y="9" dy="0.71em" style="fill: #ffffff;"></text></g><g class="tick" opacity="1" transform="translate(508.5098206660973,0)"><line stroke="currentColor" y2="6"></line><text fill="currentColor" y="9" dy="0.71em" style="fill: #ffffff;"></text></g><g class="tick" opacity="1" transform="translate(514.7438087105038,0)"><line stroke="currentColor" y2="6"></line><text fill="currentColor" y="9" dy="0.71em" style="fill: #ffffff;"></text></g><g class="tick" opacity="1" transform="translate(520.9777967549103,0)"><line stroke="currentColor" y2="6"></line><text fill="currentColor" y="9" dy="0.71em" style="fill: #ffffff;"></text></g><g class="tick" opacity="1" transform="translate(527.2117847993168,0)"><line stroke="currentColor" y2="6"></line><text fill="currentColor" y="9" dy="0.71em" style="fill: #ffffff;"></text></g><g class="tick" opacity="1" transform="translate(533.4457728437233,0)"><line stroke="currentColor" y2="6"></line><text fill="currentColor" y="9" dy="0.71em" style="fill: #ffffff;"></text></g><g class="tick" opacity="1" transform="translate(539.6797608881297,0)"><line stroke="currentColor" y2="6"></line><text fill="currentColor" y="9" dy="0.71em" style="fill: #ffffff;"></text></g><g class="tick" opacity="1" transform="translate(545.9137489325362,0)"><line stroke="currentColor" y2="6"></line><text fill="currentColor" y="9" dy="0.71em" style="fill: #ffffff;"></text></g><g class="tick" opacity="1" transform="translate(552.1477369769427,0)"><line stroke="currentColor" y2="6"></line><text fill="currentColor" y="9" dy="0.71em" style="fill: #ffffff;"></text></g><g class="tick" opacity="1" transform="translate(558.3817250213492,0)"><line stroke="currentColor" y2="6"></line><text fill="currentColor" y="9" dy="0.71em" style="fill: #ffffff;"></text></g><g class="tick" opacity="1" transform="translate(564.6157130657557,0)"><line stroke="currentColor" y2="6"></line><text fill="currentColor" y="9" dy="0.71em" style="fill: #ffffff;"></text></g><g class="tick" opacity="1" transform="translate(570.8497011101622,0)"><line stroke="currentColor" y2="6"></line><text fill="currentColor" y="9" dy="0.71em" style="fill: #ffffff;"></text></g><g class="tick" opacity="1" transform="translate(577.0836891545687,0)"><line stroke="currentColor" y2="6"></line><text fill="currentColor" y="9" dy="0.71em" style="fill: #ffffff;"></text></g><g class="tick" opacity="1" transform="translate(583.3176771989752,0)"><line stroke="currentColor" y2="6"></line><text fill="currentColor" y="9" dy="0.71em" style="fill: #ffffff;"></text></g><g class="tick" opacity="1" transform="translate(589.5516652433816,0)"><line stroke="currentColor" y2="6"></line><text fill="currentColor" y="9" dy="0.71em" style="fill: #ffffff;"></text></g><g class="tick" opacity="1" transform="translate(595.7856532877881,0)"><line stroke="currentColor" y2="6"></line><text fill="currentColor" y="9" dy="0.71em" style="fill: #ffffff;"></text></g><g class="tick" opacity="1" transform="translate(602.0196413321946,0)"><line stroke="currentColor" y2="6"></line><text fill="currentColor" y="9" dy="0.71em" style="fill: #ffffff;"></text></g><g class="tick" opacity="1" transform="translate(608.2536293766011,0)"><line stroke="currentColor" y2="6"></line><text fill="currentColor" y="9" dy="0.71em" style="fill: #ffffff;"></text></g><g class="tick" opacity="1" transform="translate(614.4876174210076,0)"><line stroke="currentColor" y2="6"></line><text fill="currentColor" y="9" dy="0.71em" style="fill: #ffffff;"></text></g><g class="tick" opacity="1" transform="translate(620.7216054654141,0)"><line stroke="currentColor" y2="6"></line><text fill="currentColor" y="9" dy="0.71em" style="fill: #ffffff;"></text></g><g class="tick" opacity="1" transform="translate(626.9555935098206,0)"><line stroke="currentColor" y2="6"></line><text fill="currentColor" y="9" dy="0.71em" style="fill: #ffffff;"></text></g><g class="tick" opacity="1" transform="translate(633.1895815542271,0)"><line stroke="currentColor" y2="6"></line><text fill="currentColor" y="9" dy="0.71em" style="fill: #ffffff;"></text></g><g class="tick" opacity="1" transform="translate(639.4235695986335,0)"><line stroke="currentColor" y2="6"></line><text fill="currentColor" y="9" dy="0.71em" style="fill: #ffffff;"></text></g><g class="tick" opacity="1" transform="translate(645.65755764304,0)"><line stroke="currentColor" y2="6"></line><text fill="currentColor" y="9" dy="0.71em" style="fill: #ffffff;"></text></g><g class="tick" opacity="1" transform="translate(651.8915456874465,0)"><line stroke="currentColor" y2="6"></line><text fill="currentColor" y="9" dy="0.71em" style="fill: #ffffff;"></text></g><g class="tick" opacity="1" transform="translate(658.125533731853,0)"><line stroke="currentColor" y2="6"></line><text fill="currentColor" y="9" dy="0.71em" style="fill: #ffffff;"></text></g><g class="tick" opacity="1" transform="translate(664.3595217762595,0)"><line stroke="currentColor" y2="6"></line><text fill="currentColor" y="9" dy="0.71em" style="fill: #ffffff;"></text></g><g class="tick" opacity="1" transform="translate(670.593509820666,0)"><line stroke="currentColor" y2="6"></line><text fill="currentColor" y="9" dy="0.71em" style="fill: #ffffff;"></text></g><g class="tick" opacity="1" transform="translate(676.8274978650725,0)"><line stroke="currentColor" y2="6"></line><text fill="currentColor" y="9" dy="0.71em" style="fill: #ffffff;"></text></g><g class="tick" opacity="1" transform="translate(683.061485909479,0)"><line stroke="currentColor" y2="6"></line><text fill="currentColor" y="9" dy="0.71em" style="fill: #ffffff;"></text></g><g class="tick" opacity="1" transform="translate(689.2954739538854,0)"><line stroke="currentColor" y2="6"></line><text fill="currentColor" y="9" dy="0.71em" style="fill: #ffffff;"></text></g><g class="tick" opacity="1" transform="translate(695.5294619982919,0)"><line stroke="currentColor" y2="6"></line><text fill="currentColor" y="9" dy="0.71em" style="fill: #ffffff;"></text></g><g class="tick" opacity="1" transform="translate(701.7634500426984,0)"><line stroke="currentColor" y2="6"></line><text fill="currentColor" y="9" dy="0.71em" style="fill: #ffffff;"></text></g><g class="tick" opacity="1" transform="translate(707.9974380871049,0)"><line stroke="currentColor" y2="6"></line><text fill="currentColor" y="9" dy="0.71em" style="fill: #ffffff;"></text></g><g class="tick" opacity="1" transform="translate(714.2314261315114,0)"><line stroke="currentColor" y2="6"></line><text fill="currentColor" y="9" dy="0.71em" style="fill: #ffffff;"></text></g><g class="tick" opacity="1" transform="translate(720.465414175918,0)"><line stroke="currentColor" y2="6"></line><text fill="currentColor" y="9" dy="0.71em" style="fill: #ffffff;"></text></g><g class="tick" opacity="1" transform="translate(726.6994022203245,0)"><line stroke="currentColor" y2="6"></line><text fill="currentColor" y="9" dy="0.71em" style="fill: #ffffff;"></text></g><g class="tick" opacity="1" transform="translate(732.933390264731,0)"><line stroke="currentColor" y2="6"></line><text fill="currentColor" y="9" dy="0.71em" style="fill: #ffffff;"></text></g><g class="tick" opacity="1" transform="translate(739.1673783091375,0)"><line stroke="currentColor" y2="6"></line><text fill="currentColor" y="9" dy="0.71em" style="fill: #ffffff;"></text></g><g class="tick" opacity="1" transform="translate(745.401366353544,0)"><line stroke="currentColor" y2="6"></line><text fill="currentColor" y="9" dy="0.71em" style="fill: #ffffff;"></text></g><g class="tick" opacity="1" transform="translate(751.6353543979504,0)"><line stroke="currentColor" y2="6"></line><text fill="currentColor" y="9" dy="0.71em" style="fill: #ffffff;"></text></g><g class="tick" opacity="1" transform="translate(757.8693424423569,0)"><line stroke="currentColor" y2="6"></line><text fill="currentColor" y="9" dy="0.71em" style="fill: #ffffff;"></text></g><g class="tick" opacity="1" transform="translate(764.1033304867634,0)"><line stroke="currentColor" y2="6"></line><text fill="currentColor" y="9" dy="0.71em" style="fill: #ffffff;"></text></g><g class="tick" opacity="1" transform="translate(770.3373185311699,0)"><line stroke="currentColor" y2="6"></line><text fill="currentColor" y="9" dy="0.71em" style="fill: #ffffff;"></text></g><g class="tick" opacity="1" transform="translate(776.5713065755764,0)"><line stroke="currentColor" y2="6"></line><text fill="currentColor" y="9" dy="0.71em" style="fill: #ffffff;"></text></g></g><g transform="translate(50,0)" fill="none" font-size="10" font-family="sans-serif" text-anchor="end"><path class="domain" stroke="#ffffff" d="M-6,370.5H0.5V20.5H-6"></path><g class="tick" opacity="1" transform="translate(0,370.5)"><line stroke="currentColor" x2="-6"></line><text fill="currentColor" x="-9" dy="0.32em" style="fill: #ffffff;">0</text></g><g class="tick" opacity="1" transform="translate(0,300.5)"><line stroke="currentColor" x2="-6"></line><text fill="currentColor" x="-9" dy="0.32em" style="fill: #ffffff;">1</text></g><g class="tick" opacity="1" transform="translate(0,230.5)"><line stroke="currentColor" x2="-6"></line><text fill="currentColor" x="-9" dy="0.32em" style="fill: #ffffff;">2</text></g><g class="tick" opacity="1" transform="translate(0,160.5)"><line stroke="currentColor" x2="-6"></line><text fill="currentColor" x="-9" dy="0.32em" style="fill: #ffffff;">3</text></g><g class="tick" opacity="1" transform="translate(0,90.49999999999999)"><line stroke="currentColor" x2="-6"></line><text fill="currentColor" x="-9" dy="0.32em" style="fill: #ffffff;">4</text></g><g class="tick" opacity="1" transform="translate(0,20.5)"><line stroke="currentColor" x2="-6"></line><text fill="currentColor" x="-9" dy="0.32em" style="fill: #ffffff;">5</text></g></g><path fill="none" stroke="#ffffff" stroke-width="2" d="M53.42869342442355,370L59.66268146883004,370L65.89666951323653,370L72.130657557643,370L78.3646456020495,370L84.598633646456,370L90.83262169086248,370L97.06660973526898,370L103.30059777967547,370L109.53458582408196,370L115.76857386848845,370L122.00256191289493,370L128.23654995730143,370L134.47053800170792,370L140.70452604611444,370L146.93851409052093,370L153.1725021349274,370L159.4064901793339,370L165.6404782237404,370L171.87446626814688,370L178.10845431255336,370L184.34244235695985,370L190.57643040136634,26.999999999999968L196.81041844577283,42.40000000000002L203.0444064901793,42.40000000000002L209.2783945345858,50.09999999999999L215.5123825789923,94.89999999999999L221.7463706233988,95.6L227.9803586678053,94.89999999999999L234.21434671221178,104L240.44833475661827,103.3L246.68232280102475,110.30000000000001L252.91631084543124,117.30000000000001L259.15029888983776,122.20000000000002L265.38428693424424,121.50000000000001L271.61827497865073,119.4L277.8522630230572,123.60000000000001L284.0862510674637,122.90000000000002L290.3202391118702,122.90000000000002L296.5542271562767,122.20000000000002L302.78821520068317,120.80000000000001L309.02220324508966,120.10000000000001L315.25619128949614,120.10000000000001L321.49017933390263,120.80000000000001L327.7241673783091,118L333.9581554227156,119.4L340.1921434671221,119.4L346.4261315115286,119.4L352.66011955593507,119.4L358.89410760034156,119.4L365.12809564474804,118.7L371.36208368915453,118.7L377.596071733561,118.7L383.8300597779675,118.7L390.06404782237405,118.7L396.29803586678054,118.7L402.532023911187,118L408.7660119555935,118L415,118.7L421.2339880444065,118.7L427.467976088813,118.7L433.70196413321946,118.7L439.93595217762595,119.4L446.16994022203244,118.7L452.4039282664389,118.7L458.6379163108454,118.7L464.8719043552519,118.7L471.1058923996584,118.7L477.3398804440649,118L483.57386848847136,117.30000000000001L489.80785653287785,116.60000000000001L496.04184457728434,116.60000000000001L502.2758326216908,116.60000000000001L508.5098206660973,116.60000000000001L514.7438087105038,118L520.9777967549103,118L527.2117847993168,118L533.4457728437233,118L539.6797608881297,118L545.9137489325362,118L552.1477369769427,119.4L558.3817250213492,120.80000000000001L564.6157130657557,120.80000000000001L570.8497011101622,120.80000000000001L577.0836891545687,120.80000000000001L583.3176771989752,120.80000000000001L589.5516652433816,120.80000000000001L595.7856532877881,120.80000000000001L602.0196413321946,120.80000000000001L608.2536293766011,122.90000000000002L614.4876174210076,122.90000000000002L620.7216054654141,124.30000000000001L626.9555935098206,123.60000000000001L633.1895815542271,123.60000000000001L639.4235695986335,123.60000000000001L645.65755764304,122.90000000000002L651.8915456874465,122.90000000000002L658.125533731853,122.90000000000002L664.3595217762595,123.60000000000001L670.593509820666,123.60000000000001L676.8274978650725,122.90000000000002L683.061485909479,122.90000000000002L689.2954739538854,122.90000000000002L695.5294619982919,122.90000000000002L701.7634500426984,122.90000000000002L707.9974380871049,122.90000000000002L714.2314261315114,122.90000000000002L720.465414175918,122.90000000000002L726.6994022203245,122.90000000000002L732.933390264731,123.60000000000001L739.1673783091375,123.60000000000001L745.401366353544,123.60000000000001L751.6353543979504,123.60000000000001L757.8693424423569,123.60000000000001L764.1033304867634,125.00000000000001L770.3373185311699,125.00000000000001L776.5713065755764,125.00000000000001"></path></svg>